<svg enable-background="new 0 0 256.1 349.5" height="349.5" viewBox="0 0 256.1 349.5" width="256.1" xmlns="http://www.w3.org/2000/svg"><path d="m251.3 262.3c-.1 5.5-4.6 9.9-10.1 9.8l-153.3-3.3c-5.5-.1-10-4.7-9.9-10.2l1.5-139.1c.1-5.5 4.6-9.9 10.1-9.8l153.3 3.3c5.5.1 10 4.7 9.9 10.2z" fill="#fdfeff"/><path d="m236.9 255.4c-.1 5.5-4.6 9.9-10.1 9.8l-131.2-2.8c-5.5-.1-10-4.7-9.9-10.2l1.3-127.7c.1-5.5 4.6-9.9 10.1-9.8l131.2 2.8c5.5.1 10 4.7 9.9 10.2z" fill="#7e9597"/><path d="m239.2 273.6-153.9-3.3c-6.1-.1-11.1-5.6-11-12.2l1.5-138.2c.1-6.6 5.1-11.9 11.3-11.7l153.9 3.3c6.1.1 11.1 5.6 11 12.2l-1.5 138.2c-.1 6.6-5.2 11.9-11.3 11.7zm-152.3-162.3c-4.5-.1-8.3 3.8-8.3 8.7l-1.5 138.2c-.1 4.9 3.6 8.9 8.1 9l153.9 3.3c4.5.1 8.3-3.8 8.3-8.7l1.5-138.2c.1-4.9-3.6-8.9-8.1-9z" fill="#020202"/><path d="m96.4 51.6c.1-3.5-2.1-6.4-4.9-6.6s-5.2 2.5-5.3 6c-.1 3.2 1.7 5.9 4.2 6.4l-2.3 51.3 4.5.1-1-51.3c2.6-.1 4.7-2.6 4.8-5.9z" fill="#020202" stroke="#020202" stroke-miterlimit="10"/><path d="m104.1 69.3c.1-1.9-1.4-3.5-3.3-3.6s-3.6 1.4-3.6 3.2c-.1 1.7 1.2 3.2 2.9 3.5l-1.8 37.1 3.1.1-.4-37.2c1.6.1 3-1.3 3.1-3.1z" fill="#020202" stroke="#020202" stroke-miterlimit="10"/><path d="m90.3 46.2s-.2.1-.6.3c-.2.1-.4.2-.6.4s-.4.3-.6.6c-.1.1-.2.3-.3.4-.1.2-.1.3-.2.5s-.1.3-.2.5c0 .2-.1.4-.1.6v.6.6c0 .2 0 .4.1.6s.1.4.2.6l.2.6.3.5c.1.2.3.3.4.5s.3.3.4.4c.2.1.3.2.4.3.2.1.3.2.5.2.3.2.7.1 1 .2h.9c.3 0 .5-.1.7-.1.4-.1.6-.1.6-.1s-.2.1-.5.4c-.2.1-.4.3-.7.4s-.6.2-.9.3c-.4 0-.8.1-1.2-.1-.2-.1-.4-.1-.7-.2-.2-.1-.4-.2-.6-.4-.2-.1-.4-.3-.6-.5s-.4-.4-.5-.6l-.4-.7-.3-.5c-.1-.2-.1-.5-.2-.8s-.1-.5-.1-.8c-.1-.5 0-1.1.1-1.6 0-.3.1-.5.2-.7s.2-.4.3-.6.2-.4.4-.6c.2-.1.3-.3.4-.4.3-.3.6-.4.9-.6s.5-.2.7-.2z" fill="#fdfeff"/><path d="m100.8 66.1s-.2.1-.4.2c-.1.1-.3.1-.4.3-.1.1-.3.2-.4.4-.1.1-.1.2-.2.3s-.1.2-.2.3-.1.2-.1.3-.1.2-.1.4v.4.4c0 .1 0 .3.1.4 0 .1.1.3.1.4l.2.4.2.3.3.3.3.3c.1.1.2.2.3.2s.2.1.4.1c.2.1.5.1.7.1h.6c.2 0 .4-.1.5-.1.3-.1.5-.1.5-.1s-.1.1-.4.2c-.1.1-.3.2-.5.2-.2.1-.4.1-.7.2-.3 0-.6 0-.9 0-.2 0-.3-.1-.5-.1-.2-.1-.3-.2-.5-.2-.2-.1-.3-.2-.4-.3s-.3-.2-.4-.4l-.3-.4-.2-.5c-.1-.2-.1-.3-.2-.5 0-.2-.1-.3-.1-.5 0-.3 0-.7.1-1 0-.2.1-.3.2-.4s.1-.3.2-.4.2-.2.3-.3.2-.2.3-.3c.2-.2.4-.3.6-.3.2-.1.4-.1.5-.1.3-.1.5-.2.5-.2z" fill="#fdfeff"/><path d="m89.7 108.9-1.2-.2 2.2-51.8h.3z" fill="#fdfeff"/><path d="m99.6 108-.8-.1 1.3-35.1h.2z" fill="#fdfeff"/><path d="m103.4 146.4s.1.2.4.6.6.9 1.1 1.6c.2.4.4.8.7 1.2.2.4.5.8.7 1.3s.4 1 .7 1.5c.2.5.4 1 .6 1.6.2.5.4 1.1.6 1.6s.3 1.1.5 1.6c.1.5.2 1.1.4 1.6.1.5.2 1 .3 1.4s.1.9.2 1.2c0 .4.1.7.1 1 0 .5.1.8.1.8s-.1-.3-.2-.8c0-.3-.1-.6-.2-.9s-.2-.7-.3-1.1-.2-.9-.4-1.3c-.2-.5-.3-.9-.5-1.4s-.4-1-.6-1.4c-.2-.5-.5-1-.7-1.4-.3-.5-.5-1-.8-1.4s-.5-.8-.8-1.3c-.2-.4-.5-.7-.8-1.1-.3-.3-.5-.7-.7-1-.5-.6-.9-1-1.2-1.3s-.5-.5-.5-.5z" fill="#fdfeff"/><path d="m136.4 142.1c-7.8-2.9-20.9 2.8-28.6 5.1-10.8 3.1-22.2 9-31.2 15.6-18.6 13.8-28 31.5-32.4 53.4-3.1 15.4-.7 27.7 14 35.8 5.1 2.8 15.4 7.2 20.8 3.8 5.3-3.3 4.3-15.3 5.4-21.1 3-15.1 6.2-29.3 20.3-38.1 11.9-7.4 34.2-6.9 41.4-20.2 5.6-10.2 3.9-30.8-9.8-33.9" fill="#fdfeff"/><path d="m136.4 142.1c-7.8-2.9-12.2 7.7-19.9 9.9-10.8 3.1-23.6 12.4-32.5 19-18.6 13.8-25 28.7-29.4 50.6-3.1 15.4-11.1 22.3 3.6 30.4 5.1 2.8 15.4 7.2 20.8 3.8 5.3-3.3 4.3-15.3 5.4-21.1 3-15.1 6.2-29.3 20.3-38.1 11.9-7.4 34.2-6.9 41.4-20.2 5.6-10.2 3.9-30.8-9.8-33.9" fill="#7e9597"/><path d="m136.4 142.2s-.3-.1-.9-.3c-.6-.1-1.6-.3-2.8-.3-2.5-.1-6.1.6-10.5 2.1-2.2.8-4.6 1.7-7.2 2.7-1.3.5-2.7 1.1-4.2 1.6-.7.2-1.5.5-2.2.7-.8.2-1.5.5-2.2.8-6 2.3-12.5 5.7-19.3 10-3.4 2.1-6.8 4.5-10.2 7.1-.8.7-1.7 1.3-2.6 2-.8.7-1.6 1.4-2.5 2.1-1.6 1.5-3.2 3-4.8 4.7-3.1 3.3-6 7-8.5 11-2.6 4-4.8 8.4-6.6 13.1-1.8 4.6-3.4 9.5-4.5 14.5-.3 1.3-.6 2.5-.9 3.8s-.5 2.5-.7 3.8c-.4 2.6-.7 5.2-.8 7.8 0 2.6.2 5.2.9 7.7s1.9 4.9 3.6 6.9c3.3 4.1 8 6.8 12.8 8.9 2.4 1 4.9 1.9 7.5 2.4 2.5.5 5.2.7 7.3-.1.5-.2 1-.5 1.5-.8l.2-.1.1-.1c.1-.1.2-.1.3-.3.2-.2.4-.4.5-.6.7-.9 1.1-2.1 1.5-3.2.7-2.4.9-5 1.1-7.6s.3-5.2.7-8c.5-2.6 1-5.2 1.6-7.7 1.1-5.1 2.5-10.2 4.7-14.9 4.2-9.5 12.5-17 21.6-20 4.5-1.6 8.8-2.7 13-3.8s8.1-2.4 11.6-4c3.5-1.7 6.6-3.8 8.6-6.6s3.1-6 3.7-9.1c1.1-6.3.3-12-1.4-16.2-.9-2.1-1.9-3.9-3.1-5.2s-2.4-2.2-3.5-2.9c-1.1-.6-2-1-2.6-1.2s-.9-.3-.9-.3l.1-.3s.3.1 1 .2c.6.2 1.6.5 2.7 1 1.1.6 2.5 1.5 3.8 2.8s2.6 3.1 3.6 5.3c2 4.4 3.1 10.3 2.2 17-.2 1.7-.6 3.4-1.2 5.1-.3.8-.7 1.8-1 2.6-.1.2-.2.4-.3.6l-.4.6c-.2.4-.5.8-.8 1.2-2.2 3.2-5.6 5.7-9.3 7.6s-7.8 3.2-12 4.5-8.5 2.4-12.7 3.9c-8.4 2.9-15.8 9.5-19.8 18.4-2.1 4.4-3.5 9.2-4.7 14.2-.6 2.5-1.1 5-1.6 7.6-.4 2.4-.5 5.1-.8 7.7-.3 2.7-.6 5.4-1.4 8.1-.4 1.3-1 2.7-1.9 3.9-.2.3-.5.6-.8.9s-.7.6-.9.8c-.6.5-1.4.8-2.1 1-1.5.5-2.9.6-4.4.5-1.4-.1-2.8-.3-4.2-.7-2.7-.7-5.3-1.7-7.7-2.8-4.9-2.3-9.7-5.3-13-9.7-1.7-2.2-2.9-4.7-3.6-7.3s-.9-5.3-.9-8c.1-5.4 1.1-10.5 2.2-15.6s2.4-10.1 4.1-14.9c3.3-9.6 8.4-18.3 14.7-25.3 1.6-1.8 3.2-3.3 4.9-4.9.9-.8 1.7-1.5 2.6-2.2s1.7-1.4 2.6-2c3.5-2.7 7-5 10.5-7.2 6.9-4.2 13.6-7.6 19.9-9.7.8-.3 1.6-.5 2.3-.7.8-.2 1.5-.4 2.2-.7 1.4-.4 2.8-.9 4.2-1.4 2.7-.9 5.2-1.8 7.4-2.4 4.6-1.3 8.3-1.7 10.9-1.5 1.3.1 2.2.4 2.9.6.6.2.9.3.9.3z" fill="#020202"/><path d="m85.9 157.4s.3.2.8.5c.5.4 1.2.8 2.1 1.5.4.4.9.7 1.4 1.1s1 .8 1.5 1.3l1.5 1.5c.5.5 1 1.1 1.4 1.7.5.6 1 1.1 1.4 1.8.4.6.8 1.2 1.3 1.8.4.6.7 1.2 1.1 1.8.3.6.6 1.1.9 1.7.3.5.5 1 .7 1.5s.3.9.5 1.2c.3.7.4 1 .4 1s-.2-.3-.5-.9c-.2-.3-.4-.7-.6-1.1s-.5-.8-.8-1.3-.6-1-1-1.5-.8-1-1.2-1.6c-.5-.5-.9-1-1.4-1.5s-1-1-1.5-1.5-1-1-1.6-1.4c-.5-.4-1.1-.8-1.6-1.2s-1-.7-1.5-1-.9-.6-1.4-.8c-.9-.5-1.7-.8-2.2-1.1s-.8-.4-.8-.4z" fill="#020202"/><path d="m67.2 171.4s.3.2.9.4c.3.1.6.3 1 .5s.9.4 1.4.6c.5.3 1 .6 1.6.9s1.2.6 1.7 1.1c.6.4 1.2.8 1.8 1.3.6.4 1.2.9 1.7 1.4.6.5 1.2 1 1.7 1.5s1 1.1 1.5 1.6c.5.6.9 1.1 1.3 1.6s.8 1 1.1 1.5.6.9.9 1.3c.2.4.5.8.6 1.1.3.6.5.9.5.9s-.2-.3-.6-.8c-.2-.3-.5-.6-.7-.9-.3-.3-.7-.7-1-1.1-.4-.4-.8-.9-1.3-1.3s-1-.9-1.5-1.3-1.1-.8-1.7-1.3-1.2-.8-1.8-1.2-1.2-.8-1.8-1.1-1.2-.6-1.8-.9-1.2-.5-1.8-.7-1.1-.4-1.6-.6-1-.3-1.4-.4-.8-.2-1.1-.3c-.6-.2-1-.3-1-.3z" fill="#020202"/><path d="m53.7 190.3s.4.1 1 .2c.3.1.7.2 1.1.3s.9.2 1.5.4c.5.2 1.1.4 1.7.6s1.3.4 1.9.7 1.3.6 2 .9 1.3.7 2 1c.7.4 1.3.7 1.9 1.1s1.2.8 1.8 1.2 1.1.9 1.6 1.3 1 .8 1.4 1.2.8.8 1.2 1.1c.3.4.6.7.8.9.5.5.7.8.7.8s-.3-.2-.8-.7c-.3-.2-.6-.5-.9-.8-.4-.3-.8-.6-1.3-.9s-.9-.7-1.5-1c-.5-.3-1.1-.6-1.7-1-.6-.3-1.3-.6-1.9-.9s-1.3-.5-2-.8c-.7-.2-1.3-.5-2-.7s-1.3-.4-2-.5c-.6-.2-1.3-.2-1.9-.4-.6-.1-1.1-.2-1.7-.3-.5-.1-1-.1-1.5-.1-.4 0-.8-.1-1.1-.1-.6 0-1-.1-1-.1z" fill="#020202"/><path d="m47.2 211.1s.3 0 .9.1c.3 0 .6 0 1 .1.4 0 .9 0 1.4.1s1.1.2 1.7.3 1.2.2 1.8.3c.6.2 1.3.3 1.9.5.7.1 1.3.4 2 .6s1.3.4 1.9.8c.6.3 1.2.6 1.8.8.6.3 1.1.6 1.7.9.5.3 1 .6 1.5.9.4.3.8.6 1.2.8.3.3.6.5.9.7.5.4.8.6.8.6s-.3-.2-.8-.5c-.3-.2-.6-.4-.9-.6-.4-.2-.8-.4-1.3-.6s-1-.5-1.5-.7-1.1-.4-1.7-.7c-.6-.2-1.2-.3-1.9-.5-.6-.2-1.3-.3-1.9-.4s-1.3-.3-1.9-.3c-.6-.1-1.3-.1-1.9-.2s-1.2 0-1.7 0-1.1 0-1.5 0c-.5 0-.9.1-1.3.1s-.8.1-1 .1c-.6.1-.9.1-.9.1z" fill="#020202"/><path d="m101.9 165.8c.3 3.5.7 6.1 1.1 9 .6 4.1 1 8.3 1.4 12.5.8 8.7 1.1 17.5.4 26.1-.6 7.2-2.1 14.4-3.3 21.5-1.1 6.3-4.1 13.5-3.7 19.7 1.1 16.8 20.2 27.5 33.1 33.3 9.4 4.2 22.1 6.5 32.3 7.5 8.9.9 19.5.5 28.3-1.9 6.1-1.7 12.1-4.1 16.3-9 5.3-6.2 8.6-14.3 10.4-22.1 3.1-13.4 5.4-27.3 4.7-41.1-.7-14-4.4-27.2-10.2-39.9-.8-1.7-1.6-3.4-2.5-5.1" fill="#fdffff"/><path d="m99.4 164.1c8.9 15.3 10.8 36.2 11.7 44.8 1.3 12.3.8 20.4-.4 27.5-1.1 6.3-3.9 13.5-3.6 19.7.7 16.8 17.9 27.1 29.4 32.7 8.4 4 16.9 4.9 26.1 5.7 8 .7 23.7 1.6 27.9-18.2 2.4-11 7.3-23.1 7.7-40 .4-16.7-5.4-28.9-6-34.9-.2-1.9-22.5-53.3-23.3-54.9" fill="#7e9597"/><g fill="#020202"><path d="m93.9 259.2c.4-3.6 1.3-7.1 2.1-10.5.9-3.5 3.3-11.6 3.8-15.1 1.6-8.6 3.4-17.1 3.7-25.8.5-10.5-.1-20.9-1.1-31.4-.3-3.5-.7-7-.8-10.5h.4c3.1 17.4 6.1 35 3.9 52.7-.4 3.5-1 7-1.6 10.5-.6 3.1-1.2 7.4-2.1 10.5-1.8 6.7-4.3 13.3-5.6 20.1z"/><path d="m104.9 191.2s.2.2.5.5l.5.5c.2.2.4.5.7.7.5.4 1.1 1.1 1.8 1.5.3.3.7.6 1.1.8s.7.5 1.1.7.8.4 1.2.6.8.3 1.2.5c.4.1.7.3 1.1.4s.7.2 1 .2c.3.1.6.1.9.2.3 0 .5.1.7.1.4.1.6.1.6.1s-.2 0-.6 0c-.2 0-.4 0-.7 0s-.6 0-.9 0-.7 0-1.1 0-.8-.1-1.2-.1c-.4-.1-.8-.1-1.2-.2s-.8-.2-1.3-.3c-.4-.2-.8-.3-1.2-.5s-.8-.4-1.2-.6c-.8-.3-1.4-.8-2-1.2-.3-.2-.5-.4-.8-.5-.2-.2-.4-.3-.6-.4-.3-.2-.5-.4-.5-.4z"/><path d="m105.3 210s.2.2.5.5l.5.5c.2.2.4.4.7.7.5.4 1.1 1 1.7 1.5.3.2.7.5 1 .7.4.2.7.4 1.1.7.4.2.7.4 1.1.5.4.2.7.3 1.1.4s.7.2 1.1.3c.3.1.7.1 1 .2s.6.1.8.1.5.1.6.1c.4 0 .6.1.6.1s-.2 0-.6.1c-.2 0-.4 0-.7.1-.3 0-.5.1-.9.1-.3 0-.7 0-1 0-.4 0-.7 0-1.1-.1-.4 0-.8 0-1.2-.2-.4-.1-.8-.2-1.2-.3s-.8-.3-1.2-.4-.8-.3-1.1-.5c-.7-.3-1.4-.8-2-1.1-.3-.2-.5-.3-.8-.5-.2-.1-.4-.3-.6-.4-.3-.2-.5-.3-.5-.3z"/><path d="m103.5 225.8s.2.2.4.5l.5.5c.2.2.4.4.7.7.5.4 1.1 1 1.7 1.5.3.2.6.5 1 .7.3.2.7.4 1.1.7.4.2.7.4 1.1.5.4.2.7.3 1.1.4s.7.2 1 .3.7.1.9.2c.3.1.6.1.8.1s.5.1.6.1c.3 0 .5.1.5.1s-.2 0-.6.1c-.2 0-.4 0-.6.1-.3 0-.5.1-.8.1s-.6 0-1 0-.7 0-1.1-.1c-.4 0-.8 0-1.2-.2-.4-.1-.8-.2-1.2-.3s-.8-.3-1.2-.4-.7-.3-1.1-.5c-.7-.3-1.4-.8-1.9-1.1-.3-.2-.5-.3-.7-.5-.2-.1-.4-.3-.6-.4-.3-.2-.5-.3-.5-.3z"/><path d="m100.1 240.7s.2.2.4.5l.5.5c.2.2.4.4.7.7.5.4 1.1 1 1.7 1.5.3.2.6.5 1 .7.3.2.7.4 1.1.7.4.2.7.4 1.1.5.4.2.7.3 1.1.4s.7.2 1 .3.7.1.9.2c.3.1.6.1.8.1s.5.1.6.1c.3 0 .5.1.5.1s-.2 0-.6.1c-.2 0-.4 0-.6.1-.3 0-.5.1-.8.1s-.6 0-1 0-.7 0-1.1-.1c-.4 0-.8 0-1.2-.2-.4-.1-.8-.2-1.2-.3s-.8-.3-1.2-.4-.7-.3-1.1-.5c-.7-.3-1.4-.8-1.9-1.1-.3-.2-.5-.3-.7-.5-.2-.1-.4-.3-.6-.4-.3-.2-.5-.3-.5-.3z"/><path d="m197.3 212.3s-.3 0-.9.1c-.3 0-.7.1-1.1.1s-.9.1-1.4.1c-1.1.1-2.3.2-3.6.2-.7 0-1.3 0-2 0s-1.4-.1-2.1-.1c-.7-.1-1.4-.2-2.1-.2-.7-.1-1.3-.2-2-.3-.6-.1-1.3-.2-1.8-.4-.6-.2-1.1-.3-1.6-.4s-.9-.3-1.3-.4-.7-.2-1-.3c-.6-.2-.9-.3-.9-.3s.3.1.9.2c.3.1.7.1 1.1.2s.9.2 1.4.2c.5.1 1.1.1 1.6.2.6.1 1.2.1 1.8.2.6 0 1.3.1 2 .1h2c.7-.1 1.4-.1 2-.2.7-.1 1.3-.2 1.9-.3 1.3-.2 2.4-.5 3.4-.7.5-.1 1-.2 1.4-.3s.8-.2 1.1-.3c.6-.1.9-.2.9-.2z"/><path d="m205.3 229s-.4 0-1 .1c-.3 0-.7.1-1.1.1s-.9.1-1.5.1c-1.1 0-2.4.1-3.8.1-.7 0-1.4 0-2.1-.1s-1.4-.1-2.2-.2c-.7-.1-1.4-.2-2.2-.3-.7-.1-1.4-.3-2.1-.4s-1.3-.3-1.9-.5-1.2-.3-1.7-.5c-.5-.1-1-.3-1.4-.4s-.8-.3-1.1-.4c-.6-.2-.9-.3-.9-.3s.4.1 1 .2c.3.1.7.1 1.1.2s.9.2 1.4.3 1.1.2 1.7.3 1.3.1 1.9.2c.7 0 1.3.1 2 .1h2.1c.7 0 1.4-.1 2.1-.1s1.4-.1 2-.2c1.3-.1 2.5-.4 3.6-.6.5-.1 1-.2 1.4-.3s.8-.2 1.1-.2c.6-.1 1-.2 1-.2z"/><path d="m209 245s-.4 0-1.1.1c-.3 0-.8 0-1.2.1-.5 0-1 .1-1.6.1-1.2 0-2.6.1-4.1 0-.7 0-1.5 0-2.3-.1s-1.6-.1-2.4-.2-1.6-.2-2.3-.3c-.8-.1-1.5-.3-2.2-.4-.7-.2-1.4-.3-2.1-.5-.6-.2-1.3-.3-1.8-.5-.6-.1-1.1-.3-1.5-.5-.5-.1-.8-.3-1.2-.4-.6-.2-1-.3-1-.3s.4.1 1.1.2c.3.1.7.1 1.2.2s1 .2 1.6.3 1.2.2 1.9.3 1.4.2 2.1.2c.7.1 1.5.2 2.2.2.8 0 1.5.1 2.3.1s1.5-.1 2.3-.1c.7 0 1.5-.1 2.2-.2 1.4-.1 2.7-.4 3.9-.5.6-.1 1.1-.2 1.6-.3s.9-.2 1.2-.2c.7-.1 1.1-.2 1.1-.2z"/><path d="m205.3 264.3s-.4 0-1.1-.1c-.4 0-.8-.1-1.4-.1-.5-.1-1.1-.2-1.7-.2-2.5-.4-5.7-1.1-8.9-2.2-1.6-.5-3.1-1.1-4.5-1.8-.7-.3-1.4-.7-2-1-.6-.4-1.2-.7-1.7-1s-1-.6-1.4-1c-.4-.3-.7-.6-1-.8-.5-.5-.8-.8-.8-.8s.3.2.9.6c.3.2.7.4 1.1.6s.9.5 1.5.7c.5.3 1.2.5 1.8.7s1.3.4 2.1.7c1.4.4 3 .8 4.6 1 3.1.5 6.3.8 8.6.8h1.6c.5 0 .9 0 1.2-.1.7-.1 1.1-.1 1.1-.1z"/></g><path d="m111.9 267.4c-14.2-5.6-21.3-14.7-36.6-15.4-8.3-.4-16.2 1.5-24 4.1-6.6 2.2-17.2 5.9-21.8 11.3-12.3 14.1-5.2 24.7-.3 38.9-.2.3 4.2 21.9 4.1 22.2 8.5 13.1 25.9-14.3 36.2-18.5 10-4.1 24.9-8.2 34.4.9 5.2 5 8.5 15.2 13.6 20.4 5.4 5.5.3 13.3 7.2 11.8 7.5-1.7 25.5-18.1 31.2-22.6 4.9-3.8 8.2-3 13.6-6.3 11.3-7 33.5-2.5 33.5-22.6 0-28-31.2-34.8-50.2-37.1-34.4 1.8-33.4 16-41.2 13.1h.3z" fill="#fdffff"/><path d="m111.9 267.4c-14.2-5.6-14.3-6.5-29.6-7.2-8.3-.4-16.2.6-24 3.2-6.6 2.2-20 4.5-24.7 9.9-12.3 14.1-9.4 18.8-4.5 33-.2.3 4.2 21.9 4.1 22.2 8.5 13.1 25.9-14.3 36.2-18.5 10-4.1 24.9-8.2 34.4.9 5.2 5 8.5 15.2 13.6 20.4 5.4 5.5 2.6 2.4 9.5.9 7.5-1.7 21.8-21.4 27.1-26.2 4-3.6 10.4-5.4 17.2-8.1 12.4-5 27.9.4 26.6-13.6-2.7-27.9-23.4-29.9-45.1-29.9-34.4 1.8-33.4 16-41.2 13.1h.4z" fill="#7e9597"/><path d="m111.8 267.6c-2.5-.9-5.1-2-7.5-3.2-2.5-1.2-4.8-2.6-7.2-3.9-4.8-2.6-9.6-5.1-14.8-6.3-2.6-.6-5.2-.9-7.9-.9s-5.3.2-8 .6c-5.3.8-10.4 2.3-15.5 4.1s-10.2 3.8-14.7 6.4c-2.2 1.4-4.3 2.8-5.8 4.8l-.6.8-.6.8c-.4.5-.7 1.1-1.1 1.6-.7 1.1-1.3 2.2-1.8 3.3-1 2.3-1.7 4.7-1.7 7.2-.1 2.5.3 5.1.9 7.6s1.5 5.1 2.5 7.6c.9 2.6 1.9 5.1 2.7 7.8l-.2 1.3c.1-.2.2-.3.2-.5 0-.3 0-.2 0-.2v-.1.1.3l.1.7.2 1.4.5 2.8 1 5.5 1 5.6.5 2.8.2 1.4.1.7v.4.2.1.1.1c0 .2-.1.4-.2.5v-1.2c.8 1.4 1.9 2.5 3.3 2.9 1.4.5 3 .2 4.5-.3 3.1-1.2 5.8-3.3 8.5-5.5 5.3-4.4 9.9-9.7 15.7-13.8.7-.5 1.5-1 2.3-1.4s1.6-.7 2.5-1c1.6-.6 3.3-1.2 5-1.8 3.3-1 6.8-1.9 10.3-2.2s7.2-.2 10.6.9c3.5 1 6.7 3.2 9 5.9 2.4 2.8 4.1 5.9 5.9 8.9 1.7 3 3.4 6 5.5 8.5.3.3.5.6.8.9l.5.5.5.5c.7.8 1.2 1.6 1.6 2.6.8 1.8 1.1 3.8 1.3 5.5.1.8.2 1.7.4 2.2.1.2.2.3.2.3s.1.1.4.1c.2 0 .6 0 .9-.1l.3-.1h.1s.1 0 0 0h.1l.6-.2c.6-.2 1.3-.6 2-1 2.8-1.6 5.6-3.8 8.2-5.9 2.7-2.1 5.3-4.4 8-6.6l8-6.8c2.7-2.2 5.4-4.5 8.3-6.6 1.5-1 3.1-2 4.7-2.8s3.3-1.5 5-2.1c3.4-1.2 6.9-2.1 10.3-2.8s6.9-1.3 10.1-2.1 6.4-1.9 8.4-3.8c1-.9 1.8-2.1 2.2-3.4s.6-2.9.6-4.4c0-.4 0-.8-.1-1.1l-.1-1.3c-.1-.9-.2-1.6-.4-2.4-.3-1.6-.8-3.2-1.3-4.7-2.3-6.2-6.1-11.9-11-16.4-2.4-2.3-5.1-4.3-8.1-6-2.9-1.7-6-3.1-9.2-4-3.2-1-6.5-1.6-9.9-1.9-1.7-.1-3.4-.2-5.1-.1s-3.4.2-5.1.3c-6.8.6-13.6 2-19.9 4.6-3.2 1.3-6.1 3-9 5-1.4 1-2.8 2-4.4 2.8-.8.4-1.7.7-2.6.8s-1.8-.1-2.7-.4h-.1v-.1zm.3-.3.2.4-.1-.1c.8.3 1.6.4 2.4.2.8-.1 1.6-.5 2.3-.9 1.4-.9 2.8-2 4.2-3 2.8-2.1 5.8-4 9-5.6 6.4-3.1 13.4-4.7 20.3-5.6 1.7-.2 3.5-.4 5.2-.5 1.8-.1 3.6-.1 5.4-.1 3.6.2 7.1.7 10.6 1.7s6.8 2.4 10 4.1 6.1 3.8 8.8 6.2c5.4 4.8 9.8 10.8 12.4 17.7.6 1.7 1.1 3.5 1.5 5.3.2.9.4 1.9.5 2.8l.2 1.3c0 .6.1 1 .1 1.5.1 1.9-.1 3.9-.7 5.9s-1.8 3.8-3.3 5.2-3.3 2.4-5 3.1c-1.8.7-3.5 1.3-5.3 1.7-3.5.9-6.9 1.5-10.3 2.2s-6.7 1.5-9.8 2.6c-3.2 1.1-6.1 2.5-8.8 4.4-2.8 1.9-5.5 4.1-8.1 6.2l-8 6.6c-2.7 2.2-5.4 4.4-8.2 6.6-2.8 2.1-5.6 4.2-8.9 6-.8.4-1.7.8-2.7 1.2l-.6.2h-.1c-.2 0-.1 0-.2 0h-.2l-.4.1c-.5.1-1.1.1-1.7.1s-1.4-.2-2-.7c-.7-.5-1.1-1.2-1.3-1.8-.4-1.2-.4-2.1-.5-2.9-.1-1.7-.3-3.3-.9-4.6-.3-.7-.7-1.4-1.1-1.9-.1-.1-.3-.3-.4-.5l-.4-.5c-.3-.4-.6-.7-.9-1.1-2.3-2.9-3.8-6.1-5.5-9.1-1.6-3-3.2-6.1-5.3-8.7s-4.9-4.5-8-5.6c-3.2-1.1-6.6-1.4-10-1.1s-6.8 1-10.1 2c-1.6.5-3.3 1.1-4.9 1.7-.8.3-1.6.6-2.4 1-.7.4-1.5.8-2.2 1.3-2.8 1.9-5.3 4.4-7.8 6.7-2.5 2.4-5 4.8-7.6 7.2-2.6 2.3-5.4 4.6-8.8 6.1-1.7.7-3.7 1.1-5.7.6-2-.6-3.5-2-4.6-3.6v-1.2c-.1.1-.2.3-.2.5v.1-.1l-.1-.3-.1-.7-.3-1.4-.6-2.8-1.2-5.5-1.2-5.5-.6-2.8-.3-1.4-.1-.7-.1-.4v-.2-.2-.2c0-.1 0 0 0-.2s.1-.4.2-.6l-.2 1.3c-1.8-5.1-4.2-10-5.7-15.5-.8-2.7-1.3-5.6-1.2-8.6s.8-5.9 2-8.6 2.9-5.1 4.7-7.2l.3-.4.2-.2.2-.2.8-.8c.6-.5 1.1-1 1.7-1.4 1.2-.9 2.4-1.7 3.6-2.4 4.9-2.8 10.2-4.7 15.4-6.4 2.6-.9 5.3-1.7 8-2.3 2.7-.7 5.5-1.2 8.2-1.5 2.8-.3 5.6-.5 8.4-.3 2.8.1 5.6.5 8.3 1.3 2.7.7 5.3 1.8 7.8 3.1s4.8 2.7 7.1 4.2 4.6 2.9 7 4.3c2.7.8 5.1 2 7.7 3.2z" fill="#020202"/><path d="m156.1 316.4s.1 0 .3-.1.6-.2.7-.3c.2-.1.6-.2.9-.5.4-.2.7-.5 1.1-.9s.7-.9 1.1-1.5c.3-.6.7-1.3.9-2 .5-1.5.9-3.2 1.1-5 .4-3.5.3-7.2.1-9.9s-.4-4.6-.4-4.6.5 1.8 1.1 4.5 1.2 6.4 1.3 10.1c0 1.9-.1 3.8-.5 5.6-.2.9-.5 1.8-.8 2.6-.4.8-.7 1.6-1.2 2.3s-1 1.2-1.5 1.7c-.5.4-1 .8-1.5 1.1s-.8.4-1 .5-.3.1-.3.1z" fill="#020202"/><path d="m174.1 307.4s.1 0 .3-.1c.1 0 .2-.1.3-.1 0 0 .1-.1.2-.1.2-.1.4-.3.7-.5s.6-.6.8-1c1.2-1.6 2.2-4.4 2.8-7.3s.7-5.9.5-8.2c-.1-1.1-.3-2-.5-2.7-.1-.3-.2-.6-.3-.7-.1-.2-.1-.2-.1-.2s.1.1.2.2.2.4.4.7c.3.6.7 1.5 1 2.6.6 2.3 1 5.4.9 8.5s-.7 6.3-1.8 8.7c-.3.6-.6 1.1-1 1.6s-.7.8-1.1 1.2c-.2.2-.4.3-.6.4-.1.1-.2.1-.3.2-.2.1-.2.1-.2.1z" fill="#020202"/><path d="m189.9 305.2s.2-.3.6-.8c.1-.1.2-.3.3-.4s.2-.3.3-.4c.2-.3.4-.6.6-1.1.1-.2.2-.4.4-.7.1-.2.2-.5.3-.8.2-.5.4-1.1.6-1.7.1-.6.3-1.3.4-1.9.1-.7.2-1.4.3-2.1.3-2.8.3-5.7.3-7.9s.1-3.6.1-3.6.2 1.4.5 3.6c.3 2.1.9 5 1 8 0 .7.1 1.5.1 2.2s-.1 1.5-.1 2.2c-.1.7-.2 1.4-.3 2.1-.1.3-.1.7-.2 1s-.2.6-.3.9c-.2.6-.4 1.1-.6 1.6-.1.2-.2.5-.3.7s-.2.3-.2.5c-.3.6-.5.9-.5.9z" fill="#020202"/><path d="m85.1 252.8s1.5 1.8 1.7 2.3c.2.8 0-2.1.2-1.7.2.5.9 0 1 .6.7 2.1 1.8 3.3 2.3 6.1.2 1.4.4 2.8.5 4.2.1 1.3.2 2.6.2 3.6v1.4c0 .4 0 .7-.1 1-.1.5-.1.8-.1.8s0-.3 0-.9c0-.3-.1-.6-.1-1s-.1-.8-.2-1.3c-.2-1-.4-2-.7-3.1s-.7-2.3-1-3.3c-.8-2.2-1.7-4.1-2.3-5.1-.2-.3-.3-.5-.4-.6s-.2-.3-.3-.4c-.3-.3-.5-1.6-.5-1.6z" fill="#020202"/><path d="m70.7 248.7s.2.3.5.9c.2.4.4.8.7 1.3.3.6.5 1.1.8 1.8 1.1 2.5 2.4 5.9 3.4 9.3.5 1.7 1 3.4 1.3 5 .4 1.6.7 3.1.9 4.3.1.6.2 1.2.2 1.7s.1.9.1 1.2c0 .6.1 1 .1 1s-.1-.4-.2-1.1c-.1-.3-.2-.8-.3-1.2-.1-.5-.3-1-.4-1.6-.3-1.1-.8-2.4-1.3-3.8-.5-1.3-1.1-2.7-1.7-4-1.2-2.5-2.4-4.8-3.3-6-.2-.3-.4-.6-.5-.7-.1-.2-.3-.3-.4-.4-.3-.4-.5-.6-.5-.6z" fill="#020202"/><path d="m54.1 252.4s.2.3.5.9c.2.4.4.8.7 1.3.3.6.5 1.1.8 1.8 1.1 2.5 2.4 5.9 3.4 9.3.5 1.7 1 3.4 1.3 5 .4 1.6.7 3.1.9 4.3.1.6.2 1.2.2 1.7s.1.9.1 1.2c0 .6.1 1 .1 1s-.1-.4-.2-1.1c-.1-.3-.2-.8-.3-1.2-.1-.5-.3-1-.4-1.6-.3-1.1-.8-2.4-1.3-3.8-.5-1.3-1.1-2.7-1.7-4-1.2-2.5-2.4-4.8-3.3-6-.2-.3-.4-.6-.5-.7-.1-.2-.3-.3-.4-.4-.3-.4-.5-.6-.5-.6z" fill="#020202"/><path d="m80.9 253.2c8.7-17.5-41.1-34.3-52.6-17.9-14.1 20.1 32 37.4 46.8 25.1 2.1-1.8 3.8-3.2 5.1-5.9" fill="#f0efef"/><path d="m57 231.4c-.4 0-.9 0-1.3.1s-.7.1-1.1.2-.8.2-1.1.3c-.4.1-.7.2-1.1.4-.7.3-1.4.7-2 1.1s-1.2.9-1.8 1.4c-.5.5-1.1 1.1-1.5 1.7-.5.6-.9 1.2-1.3 1.8-.8 1.3-1.5 2.6-2.1 4-.3.7-.6 1.4-.8 2.2-.2.7-.5 1.5-.6 2.2-.2.7-.3 1.5-.5 2.3-.1.8-.2 1.5-.3 2.3-.3 3.1-.2 6.4.6 9.6l-.1-.1c.3.1.5.1.8.1h.2s0 0 0-.1-.1-.2-.1-.3c-.1-.2-.3-.4-.4-.7-.1-.1-.1-.2-.1-.4 0-.1 0-.2 0-.3v.3c0 .1.1.2.1.3.1.2.3.4.4.7.1.1.1.2.2.4 0 .1 0 .1-.1.2-.1 0-.1.1-.2 0-.3 0-.6-.1-.8-.1h-.1v-.1c-1.1-3.2-1.4-6.5-1.3-9.7 0-.8.1-1.6.2-2.4s.2-1.6.3-2.4.3-1.6.5-2.3c.2-.8.4-1.5.7-2.3.5-1.5 1.1-3 1.9-4.4.4-.7.8-1.4 1.3-2.1s1-1.3 1.5-1.9c.6-.6 1.2-1.2 1.8-1.7.7-.5 1.4-1 2.2-1.4.4-.2.8-.4 1.2-.6s.9-.3 1.3-.5 1-.2 1.5-.3.9-.1 1.3-.2z" fill="#a7c4c3"/><path d="m68.9 234.9c-.4 0-.9 0-1.3 0-.3.1-.7 0-1.1.1-.7.1-1.5.3-2.1.6-.7.3-1.3.6-1.9 1s-1.2.8-1.7 1.3c-1.1.9-2 2-2.8 3.2s-1.5 2.5-2 3.8c-.3.7-.5 1.3-.8 2-.2.7-.4 1.4-.6 2.1s-.3 1.4-.4 2.1-.2 1.5-.3 2.2c-.2 3-.1 6 .8 9.1l-.1-.1c.3.1.5.1.8.1.1 0 .2 0 .2-.1s-.1-.2-.1-.3c-.1-.2-.3-.4-.4-.6-.1-.1-.1-.2-.1-.3s0-.2 0-.3v.3c0 .1.1.2.1.3.1.2.3.4.4.6.1.1.1.2.2.3 0 .1 0 .1-.1.2-.1 0-.1 0-.2 0-.3 0-.5-.1-.8-.1h-.1v-.1c-1.2-3.1-1.6-6.2-1.6-9.3 0-.8 0-1.5.1-2.3s.2-1.5.3-2.3c.1-.7.3-1.5.4-2.2.2-.7.4-1.5.6-2.2.5-1.4 1.1-2.8 1.8-4.1s1.6-2.6 2.7-3.7c.6-.6 1.1-1.1 1.8-1.6s1.4-.9 2.2-1.3 1.6-.7 2.5-.9c.4-.1 1-.2 1.5-.3s.9-.1 1.3-.1z" fill="#a7c4c3"/><path d="m76.6 242.1-1 .1c-.2.1-.5.1-.8.1-.5.1-1.1.3-1.6.5s-1 .5-1.4.8c-.5.3-.9.7-1.3 1-1.6 1.5-2.8 3.5-3.6 5.7-.4 1.1-.7 2.2-.9 3.3s-.4 2.3-.4 3.5c-.1 2.3.2 4.7 1 7l-.1-.1c.2 0 .4.1.6.1h.1.1c0-.1-.1-.1-.1-.2-.1-.2-.2-.3-.3-.5 0-.1-.1-.2-.1-.3s0-.2 0-.3v.3c0 .1.1.2.1.3.1.2.2.3.4.5 0 0 .1.1.1.1s.1.1.1.2-.1.1-.1.1c-.1 0-.1 0-.2 0-.2 0-.4 0-.6 0h-.1v-.1c-1.1-2.3-1.5-4.7-1.7-7.2-.1-1.2 0-2.4.1-3.6s.4-2.4.7-3.6c.2-.6.3-1.2.6-1.7.2-.6.5-1.1.7-1.7.3-.6.6-1.1.9-1.6s.7-1 1.2-1.5c.4-.5.9-.9 1.4-1.3s1.1-.8 1.7-1.1 1.3-.6 1.9-.8c.3-.1.7-.2 1.1-.3l.9-.2z" fill="#a7c4c3"/><path d="m45.7 230-1.2.1-.9.1c-.7.1-1.3.3-1.9.5s-1.2.5-1.8.9c-.6.3-1.1.7-1.6 1.1-.2.2-.5.4-.7.7-.2.2-.5.5-.7.7s-.4.5-.6.7c-.2.3-.4.5-.6.8-.4.5-.7 1.1-1 1.7s-.6 1.2-.8 1.8c-.5 1.2-.8 2.5-1.1 3.7-.1.6-.2 1.3-.3 2s-.1 1.3-.1 2c-.1 2.7.3 5.4 1.4 8.1l-.1-.1c.2 0 .5.1.7.1h.2s.1 0 .1-.1-.1-.2-.1-.3c-.1-.2-.3-.4-.4-.6-.1-.1-.1-.2-.1-.3s0-.2 0-.3v.3c0 .1.1.2.2.3.1.2.3.4.4.5 0 0 .1.1.1.1 0 .1.1.1.1.2s-.1.1-.1.1c-.1 0-.1 0-.2 0-.3 0-.5 0-.7-.1h-.1v-.1c-1.3-2.6-1.9-5.4-2.1-8.2 0-.7 0-1.4 0-2.1s.1-1.4.1-2.1c.1-1.4.4-2.7.8-4 .2-.7.4-1.3.7-1.9s.5-1.3.9-1.9c.2-.3.3-.6.5-.9s.4-.6.6-.9.4-.6.7-.8c.2-.3.5-.5.7-.8.5-.5 1.1-1 1.7-1.4s1.3-.8 2-1.2c.7-.3 1.5-.6 2.3-.8.4-.1.9-.2 1.3-.3l1.1-.1z" fill="#a7c4c3"/><path d="m80.8 253.1s0-.1.1-.4c0-.1.1-.3.1-.5s.1-.4.1-.7c.2-1 .3-2.5-.3-4.2-.3-.9-.7-1.8-1.3-2.7s-1.4-1.8-2.3-2.7c-1.9-1.8-4.3-3.5-7.1-5-2.8-1.6-6.1-2.9-9.7-4.1-3.5-1.2-7.4-2.4-11.5-3s-8.5-.7-12.6.6c-2 .7-4 1.7-5.5 3.1-.8.7-1.4 1.6-1.9 2.4l-.8 1.5c-.2.5-.3 1-.5 1.4-.6 1.9-.7 4-.1 5.9.5 1.9 1.5 3.6 2.8 5.1 2.6 3.1 6.2 5.4 9.7 7.1 3.6 1.7 7.3 3 10.9 3.9s7.1 1.4 10.3 1.5 6.2-.2 8.6-.9c.6-.2 1.2-.4 1.7-.6.5-.3 1.1-.5 1.6-.7.5-.3.9-.6 1.4-.8.4-.3.9-.6 1.3-.9 1.6-1.1 3.9-4.1 4.6-4.9 1.5-2.3-.8 1.2-.6 1s.2-.3.2-.3l1.1-1.2s.9-2 .8-1.7c.3-1.5 1.4.5-.6 3.1-.5 1-2.9 3.9-4.3 5.3-.4.4-.7.7-1.1 1.1s-.9.8-1.4 1.2-1.1.7-1.7 1.1-1.2.6-1.9 1c-2.7 1.2-6 1.8-9.5 2s-7.4-.1-11.3-1c-3.9-.8-8-2.3-11.9-4.4s-7.7-4.8-10.7-8.7c-1.4-2-2.6-4.3-3-6.8s0-5.1 1.1-7.4c.3-.6.6-1.1.9-1.6l1-1.4c.7-1 1.6-1.9 2.5-2.6.9-.8 1.9-1.4 3-1.9 1-.5 2.1-1 3.2-1.3 4.4-1.3 8.9-1.7 13.2-1.6s8.3 1.5 12.2 2.6c2.2.6 5.6 1.7 10.1 4.3 3 1.8 6 3.3 7.9 5.5s3 4.7 3.3 6.9-.2 3.8-.7 4.8c-.1.3-.2.5-.3.7s-.2.3-.3.4c-.1.2-.2.4-.2.4z" fill="#020202"/><path d="m59.1 283.8c3.3 22.4-3.2 43.4-20.9 46.8-16.2 3.1-30-9.2-35.1-32.7-4.2-19.3-2.6-40.7 18.7-48.2 17.7-6.2 34.1 12.6 37.3 34.1z" fill="#f0efef"/><path d="m52.5 294.7c2.7 18.1-1.8 34.5-16.4 37.2-13.4 2.5-24.6-7.4-28.8-26.4-3.4-15.7-2.1-32.9 15.5-39 14.6-5.1 27.2 10.8 29.7 28.2z" fill="#c6ccd0"/><path d="m18.7 253.2s-.2.3-.5.7c-.1.2-.2.4-.3.6-.1.3-.3.7-.4 1.1s-.2.9-.3 1.4-.1 1.1-.1 1.7v1.9c.1.6.1 1.3.2 1.9s.2 1.3.3 1.9.2 1.2.4 1.8c.1.6.3 1.2.5 1.7s.3 1 .5 1.5.3.9.5 1.2.3.7.5.9c.3.5.5.8.5.8s-.2-.3-.6-.7c-.2-.2-.4-.5-.6-.9-.2-.3-.4-.7-.7-1.2-.3-.4-.4-.9-.7-1.4-.2-.5-.4-1.1-.7-1.7-.2-.6-.4-1.2-.6-1.8s-.4-1.3-.5-1.9c-.2-.7-.3-1.3-.4-2s-.2-1.3-.2-2c-.1-.6-.1-1.3-.1-1.9s.1-1.2.1-1.7c.1-.5.2-1.1.3-1.5.2-.5.4-1 .5-1.3.3-.5.5-.8.5-.8z" fill="#a7c4c3"/><path d="m8.8 264.3s-.2.2-.5.6c-.1.2-.2.3-.3.5s-.2.6-.3.9c-.1.4-.2.8-.2 1.2-.1.5-.1.9-.1 1.5v1.6c.1.5.1 1.1.2 1.7.2 1.1.4 2.2.7 3.3.2.5.3 1 .5 1.5.2.4.4.9.6 1.3s.4.7.6 1 .3.6.5.7c.3.4.5.6.5.6s-.2-.2-.6-.5c-.2-.2-.4-.4-.6-.7s-.5-.6-.7-.9c-.3-.3-.5-.8-.8-1.2-.2-.4-.5-.9-.7-1.4-.5-1-.9-2.1-1.2-3.3-.2-.6-.3-1.2-.4-1.8s-.2-1.2-.3-1.8-.1-1.1-.1-1.7c0-.5.1-1.1.1-1.6.1-.5.2-.9.3-1.4.2-.4.3-.9.5-1.1.3-.4.4-.7.4-.7z" fill="#a7c4c3"/><path d="m31.9 250.8s-.2.2-.5.5c-.2.2-.3.3-.5.6-.2.2-.3.5-.5.8s-.3.7-.5 1.1-.3.8-.5 1.3c-.1.5-.3 1-.4 1.5s-.2 1-.3 1.6c0 .5-.1 1.1-.1 1.6v1.6c0 .5.1 1 .1 1.5.1.5.1.9.2 1.3s.2.8.3 1.1.2.6.3.8c.2.5.3.7.3.7s-.1-.2-.4-.7c-.1-.2-.2-.5-.4-.8s-.3-.7-.4-1.1c-.2-.4-.3-.8-.4-1.3s-.2-1-.3-1.5-.2-1.1-.2-1.6c-.1-.6-.1-1.1-.1-1.7s0-1.2 0-1.7c0-.6.1-1.1.2-1.7s.2-1.1.3-1.6c.2-.5.3-1 .5-1.4s.3-.8.6-1.2c.2-.3.4-.7.5-.9.3-.4.4-.6.4-.6z" fill="#a7c4c3"/><path d="m44.8 254.5s-.2.2-.6.5c-.2.2-.3.4-.5.6s-.4.5-.6.8c-.3.3-.4.7-.7 1.1-.2.4-.5.9-.7 1.4s-.4 1-.6 1.6c-.2.5-.3 1.1-.5 1.7-.1.6-.3 1.2-.3 1.7-.1.6-.2 1.2-.2 1.7-.1.6-.1 1.1-.1 1.6v1.5c0 .5 0 .9.1 1.2.1.4.1.7.1 1 .1.5.2.8.2.8s-.1-.3-.3-.8c-.1-.3-.2-.6-.3-.9-.1-.4-.2-.8-.3-1.2-.1-.5-.1-1-.2-1.5 0-.5-.1-1.1-.1-1.7s0-1.2 0-1.8.1-1.2.1-1.9c.1-.6.1-1.3.3-1.9.1-.6.2-1.2.4-1.8.1-.6.4-1.1.5-1.7.2-.5.4-1 .6-1.5.2-.4.4-.8.7-1.2.2-.3.5-.7.6-.9.3-.4.5-.6.5-.6z" fill="#a7c4c3"/><path d="m8.7 278.3 32.9-8.9" fill="none" stroke="#799997" stroke-miterlimit="10"/><path d="m6.4 288.8 40.8-11.4" fill="none" stroke="#799997" stroke-miterlimit="10"/><path d="m6.5 298.1 43.9-12.5" fill="none" stroke="#799997" stroke-miterlimit="10"/><path d="m8 306.5 45.2-12.9" fill="none" stroke="#799997" stroke-miterlimit="10"/><path d="m9.5 314.7 44.3-12.5" fill="none" stroke="#799997" stroke-miterlimit="10"/><path d="m14.3 321.4 38.7-10.1" fill="none" stroke="#799997" stroke-miterlimit="10"/><path d="m20.2 327.1 30.2-7.8" fill="none" stroke="#799997" stroke-miterlimit="10"/><path d="m28.1 331.3 22.5-6.3" fill="none" stroke="#799997" stroke-miterlimit="10"/><path d="m53 294.1s.1.7.3 2.1c.1.7.2 1.5.3 2.5s.2 2.1.2 3.4c.2 2.6.1 5.7-.2 9.3-.4 3.6-1.3 7.7-3.5 11.6-2.1 4-6.1 7.4-10.8 8.9-.6.1-1.2.3-1.8.4l-.5.1-.2.1h-.1-.1-.1l-.9.1-.9.1c-.3 0-.6.1-.9 0-.6 0-1.3 0-2 0-2.6-.2-5.1-.8-7.5-2-2.4-1.1-4.6-2.9-6.5-4.8-.5-.5-1-1-1.4-1.5s-.9-1.1-1.3-1.6c-.4-.6-.8-1.2-1.2-1.7-.4-.6-.8-1.2-1.1-1.8-2.9-4.9-4.8-10.6-6-16.3-1.3-5.7-1.9-11.8-.9-17.7.1-.4.1-.7.2-1.1l.3-1.1c.2-.7.3-1.5.6-2.1.2-.7.5-1.4.7-2.1.3-.7.6-1.3.9-2s.7-1.3 1.1-1.9.7-1.3 1.2-1.8c.4-.6.9-1.1 1.3-1.7l1.5-1.5c.3-.2.5-.5.8-.7l.8-.6c.5-.4 1.1-.8 1.6-1.2.6-.3 1.2-.6 1.7-1 .6-.3 1.1-.7 1.8-.9.6-.2 1.2-.5 1.8-.7.3-.1.5-.2.9-.4l.9-.3.4-.1.5-.1 1-.2c.6-.1 1.3-.2 1.9-.2 1.3-.1 2.5 0 3.7.2s2.4.5 3.5 1c2.2.9 4.2 2.1 5.8 3.6 3.3 2.9 5.6 6.3 7.2 9.4 1.7 3.2 2.7 6.1 3.5 8.5.7 2.4 1.2 4.4 1.4 5.8 0 1.3.1 2 .1 2zm-.3.1s-.1-.7-.4-2-.7-3.3-1.6-5.6c-.4-1.2-.9-2.5-1.6-3.8-.6-1.4-1.4-2.8-2.4-4.2-1.9-2.9-4.3-5.9-7.6-8.3-1.6-1.2-3.4-2.2-5.4-2.9-1-.4-2-.6-3-.8-1-.1-2.1-.2-3.2-.1-.5 0-1.1.1-1.6.2l-.8.2-.4.1-.4.1-.9.3-.8.3c-.5.2-1.1.4-1.6.7-.6.2-1.1.5-1.6.8s-1.1.6-1.6.9c-.5.4-1 .7-1.5 1.1l-.8.5c-.2.2-.5.4-.7.6-.5.4-.9.8-1.4 1.3-.4.5-.8 1-1.2 1.4-.4.5-.8 1-1.1 1.6-.3.5-.7 1.1-1 1.7-1.3 2.3-2 4.9-2.6 7.6s-.7 5.5-.6 8.4c0 2.9.3 5.7.8 8.6l.4 2.2.5 2.1c.3 1.4.7 2.8 1.1 4.2.9 2.7 2 5.4 3.4 7.8 2.7 4.9 6.8 8.8 11.5 10.6 2.3.9 4.7 1.3 7.1 1.4.6 0 1.1-.1 1.7-.1s1.2-.2 1.8-.2l.9-.1c.2 0 .5-.1.8-.2.5-.2 1.1-.3 1.6-.5 4.2-1.4 7.6-4.3 9.8-7.8 2.2-3.4 3.4-7.2 4.1-10.6.2-.9.3-1.7.4-2.5s.2-1.6.3-2.4.1-1.5.2-2.2c0-.7 0-1.4 0-2 0-1.3-.1-2.4-.1-3.4-.1-1-.1-1.8-.2-2.5-.2-1.8-.3-2.5-.3-2.5z" fill="#020202"/><path d="m59.5 283.2s.1.9.4 2.6c.2 1.7.4 4.2.6 7.4.1 3.2.2 7.1-.3 11.6s-1.4 9.6-3.7 14.8c-1.1 2.6-2.7 5.1-4.7 7.4s-4.6 4.2-7.5 5.5c-1.5.6-3 1.1-4.6 1.4-.4.1-.8.1-1.2.2-.4 0-.8.1-1.2.1-.8 0-1.6 0-2.4 0-3.2-.2-6.5-1-9.5-2.5-6.1-2.9-11.3-7.7-15.4-13.6-2-2.9-3.8-6.1-5.2-9.5s-2.5-6.9-3.3-10.5c-1.6-7.3-1.9-14.9-.7-22.2.6-3.7 1.5-7.2 2.9-10.6s3.1-6.6 5.4-9.3 5-5 8.1-6.5c1.5-.8 3-1.3 4.7-1.7l1.1-.3.6-.1.6-.1c.8-.1 1.6-.3 2.4-.3 6.2-.6 12.3 1.2 16.8 4.4s7.6 7.4 9.8 11.3c3 5.4 3.8 8.3 2.7 5.7.7 1.8 1.3 3.5 1.8 5 .9 3.1 1.4 5.5 1.7 7.2.2.8.2 1.5.3 1.9-.3.4-.2.7-.2.7zm-.4 0s0-.2-.1-.7c-.1-.4-.2-1.1-.4-1.9-.3-1.7-.9-4.1-2-7.1s-2.7-6.5-5.1-10-5.7-7-10-9.6c-2.1-1.3-4.5-2.3-7-2.8-1.3-.3-2.6-.5-3.9-.6-1.3 0-2.7-.1-4.1.1-.7.1-1.4.2-2 .3l-.5.1-.5.1-1.1.3c-1.3.4-2.7.8-3.9 1.5-1.3.6-2.5 1.4-3.7 2.3s-2.3 2-3.3 3.1c-4.1 4.7-6.7 11.2-8 18s-1.5 14.2-.4 21.2c.6 3.6 1.4 7.1 2.7 10.4.6 1.7 1.4 3.3 2.2 4.9.8 1.5 1.7 3.1 2.7 4.5 2 2.8 4.3 5.4 6.9 7.5 1.3 1.1 2.6 2 4 2.8s2.8 1.5 4.3 2c2.9 1.1 5.9 1.7 8.9 1.6.7 0 1.5-.1 2.2-.2.4 0 .7-.1 1-.2s.7-.1 1.1-.2c1.4-.3 2.7-.8 4-1.3 2.5-1.1 4.7-2.8 6.5-4.8s3.3-4.2 4.5-6.5c2.4-4.6 3.8-9.4 4.6-13.7.4-2.2.7-4.2.8-6.1.1-1 .1-1.9.2-2.8 0-.9.1-1.7 0-2.5 0-3.2-.2-5.7-.4-7.4 0-1.4-.2-2.3-.2-2.3z" fill="#020000"/><path d="m82.8 293.6c-3.8 25 3.1 49.9 23.5 53.6 18.7 3.4 35.4-12.2 41.2-38.4 4.8-21.6 3-45.4-21.6-53.7-20.2-6.8-39.5 14.6-43.1 38.5z" fill="#f0efef"/><path d="m83.9 311.1c1 20.7 9.6 37.3 26.5 36.1 15.6-1.1 26.1-15.2 26.6-37.3.4-18.2-4.8-36.7-25.9-38.4-17.4-1.3-28.1 19.8-27.2 39.6z" fill="#c6ccd0"/><path d="m134.5 259.9s-.4.1-1 .2c-.4.1-.9.3-1.4.5-.4.2-.9.5-1.3.8s-.9.7-1.3 1.1-.8.9-1.2 1.4-.7 1-1.1 1.5c-.3.6-.7 1.1-1 1.7s-.6 1.1-.8 1.7c-.3.6-.4 1.2-.6 1.7-.2.6-.3 1.1-.5 1.7-.1.5-.2 1-.3 1.5 0 .5-.1.9-.1 1.3v1c.1.6.1.9.1.9s0-.3 0-.9c0-.3.1-.6.1-1s.2-.8.3-1.2c.1-.5.3-.9.5-1.4s.4-1 .7-1.5.5-1 .9-1.6c.3-.5.7-1 1-1.5s.8-1 1.2-1.4.8-.9 1.3-1.3c.4-.4.9-.8 1.3-1.1s.9-.6 1.3-.8.8-.4 1.1-.5.5-.1.7-.2c.7-.1 1-.1 1-.1z" fill="#a7c4c3"/><path d="m148.1 275s-.3 0-1-.1c-.4 0-.9.1-1.5.1-.5.1-1 .3-1.6.5-.5.2-1.1.5-1.7.8s-1.1.7-1.7 1.1-1.1.9-1.6 1.3c-.5.5-1.1 1-1.5 1.5-.5.5-1 1.1-1.4 1.6-.5.5-.8 1.1-1.2 1.6-.4.6-.7 1.1-1 1.6s-.6 1-.8 1.5-.4.9-.6 1.3c-.1.4-.3.7-.4 1-.2.6-.2.9-.2.9s.1-.3.4-.9c.1-.3.3-.6.5-1s.4-.8.7-1.2.6-.9 1-1.3c.4-.5.8-.9 1.2-1.4l1.4-1.4c.5-.5 1-.9 1.5-1.3s1.1-.8 1.6-1.2c.6-.4 1.1-.7 1.6-1s1.1-.6 1.6-.8 1-.4 1.4-.5.8-.2 1.2-.2h.7c.6.1.9.2.9.2z" fill="#a7c4c3"/><path d="m117.1 254.5s-.2.2-.6.6c-.2.2-.4.5-.7.9s-.5.8-.8 1.2-.5 1-.7 1.5-.4 1.1-.6 1.7-.3 1.2-.4 1.8-.2 1.3-.3 1.9c0 .6-.1 1.3-.1 1.9s0 1.2.1 1.8c0 .6.1 1.2.2 1.7l.3 1.5c.1.5.2.9.3 1.2.1.4.2.7.3.9.2.5.3.8.3.8s-.1-.3-.2-.8c-.1-.3-.1-.6-.2-1s-.1-.8-.2-1.2c-.1-.5 0-1-.1-1.5 0-.5 0-1.1.1-1.7 0-.6.1-1.2.2-1.7.1-.6.2-1.2.3-1.8.2-.6.3-1.2.5-1.7.2-.6.4-1.1.6-1.6s.5-1 .7-1.4c.3-.4.5-.8.8-1.1s.5-.6.7-.8.3-.4.6-.6c.4-.3.7-.5.7-.5z" fill="#a7c4c3"/><path d="m101.9 258.2s-.1.2-.3.6c-.1.2-.2.5-.4.8s-.3.7-.4 1c-.1.4-.2.8-.3 1.2s-.1.9-.1 1.4v1.5c0 .5.1 1 .1 1.5.1.5.1 1 .2 1.5s.2.9.3 1.4c.1.4.3.9.4 1.3.2.4.3.8.5 1.1s.3.6.5.9.3.5.4.7c.2.4.4.6.4.6s-.1-.2-.3-.6c-.1-.2-.2-.4-.3-.7s-.2-.6-.3-.9-.2-.7-.3-1.1-.2-.8-.2-1.3c-.1-.4-.1-.9-.1-1.4s0-.9 0-1.4 0-.9.1-1.4c0-.5.1-.9.2-1.3l.3-1.2c.1-.4.2-.7.4-1 .1-.3.3-.6.4-.8s.2-.4.4-.5c.3-.3.4-.5.4-.5z" fill="#a7c4c3"/><path d="m132.3 284.2-34.4-9" fill="none" stroke="#799997" stroke-miterlimit="10"/><path d="m136.8 295-45.4-12.3" fill="none" stroke="#799997" stroke-miterlimit="10"/><path d="m136.8 304.7-49-13.4" fill="none" stroke="#799997" stroke-miterlimit="10"/><path d="m136 313.7-50.4-13.8" fill="none" stroke="#799997" stroke-miterlimit="10"/><path d="m134.7 323.3-50.3-13.4" fill="none" stroke="#799997" stroke-miterlimit="10"/><path d="m131.8 332.1-45.6-12.2" fill="none" stroke="#799997" stroke-miterlimit="10"/><path d="m127.3 338.5-39.8-10.6" fill="none" stroke="#799997" stroke-miterlimit="10"/><path d="m120.1 344.2-28.2-8.4" fill="none" stroke="#799997" stroke-miterlimit="10"/><path d="m84.4 308.2s0 .8.1 2.3c0 .8.1 1.7.2 2.8s.2 2.4.5 3.8c.1.7.2 1.4.4 2.2l.6 2.4c.2.8.4 1.7.7 2.6s.5 1.8.9 2.7c1.4 3.6 3.4 7.6 6.5 11 3 3.5 7.4 6 12.5 6.8.6.1 1.3.1 1.9.2.3 0 .7.1.9.1h1c.7 0 1.4.1 2.1 0s1.3-.1 2-.2c2.7-.5 5.3-1.4 7.8-2.8 5-2.9 8.9-7.9 11.1-13.8 1.2-2.9 1.9-6 2.5-9.2.2-1.6.5-3.2.5-4.8l.2-2.4v-2.4c0-3.2-.2-6.4-.7-9.6-.4-3.1-1.1-6.2-2.2-9.1s-2.4-5.6-4.3-7.9c-.4-.6-.9-1.1-1.4-1.7-.5-.5-1-1.1-1.5-1.5-.5-.5-1.1-.9-1.6-1.4-.6-.4-1.2-.8-1.8-1.1-.3-.2-.6-.4-.9-.6l-.9-.4c-.6-.3-1.3-.6-1.9-.9-.7-.2-1.3-.4-2-.7-.6-.2-1.3-.5-2-.6s-1.3-.3-2-.4l-.9-.2-1-.1-.5-.1h-.5l-.9-.1c-.6 0-1.3 0-1.9.1-1.2.1-2.4.4-3.6.7-1.1.4-2.3.8-3.3 1.4-2.1 1.1-4 2.6-5.6 4.2-3.2 3.2-5.5 7-7.1 10.5-.8 1.8-1.5 3.5-1.9 5.1-.5 1.6-.9 3.1-1.1 4.5-.5 2.8-.7 5-.8 6.5-.1 1.3-.1 2.1-.1 2.1zm-.3 0s0-.8 0-2.3c0-1.2.1-3.4.6-6.6.4-2.8 1.1-6.2 2.4-10 1.3-3.7 3.3-7.9 6.6-11.7 1.6-1.9 3.6-3.6 6-5 1.2-.7 2.5-1.2 3.8-1.7 1.3-.4 2.7-.8 4.2-.9.7-.1 1.5-.1 2.2-.1h1.1.6l.5.1 1 .1c.5.1.7.2 1.1.2.7.2 1.4.3 2.2.5.7.1 1.4.4 2.1.7.7.2 1.4.5 2.2.8.7.3 1.4.7 2.1 1l1 .5c.3.2.7.4 1 .7.7.4 1.3.9 2 1.3.6.5 1.2 1.1 1.8 1.6s1.1 1.1 1.7 1.8c.5.6 1.1 1.2 1.6 1.9s.9 1.3 1.4 2c.4.7.8 1.5 1.2 2.2s.7 1.5 1 2.3l.5 1.2c.1.4.3.8.4 1.2 2.1 6.3 2.4 13.1 2 19.6s-1.6 13.1-4 19c-.3.7-.6 1.5-1 2.2s-.7 1.4-1.1 2.1-.8 1.4-1.2 2c-.4.7-.9 1.3-1.3 1.9-1.9 2.5-4 4.8-6.6 6.5-2.5 1.7-5.3 2.9-8.2 3.6-.7.1-1.5.3-2.2.4-.4.1-.7.1-1.1.1l-1 .1-1 .1h-.1-.1-.1-.3-.5c-.7-.1-1.4-.1-2.1-.1-5.6-.8-10.8-3.8-13.9-7.8-3.2-4-4.9-8.3-6-12.2s-1.6-7.3-1.9-10.2c-.2-1.4-.2-2.7-.3-3.8s-.1-2-.1-2.8c-.1-1.7-.2-2.5-.2-2.5z" fill="#020202"/><path d="m83.1 292.6s-.1 1-.4 2.9c-.2 1.9-.5 4.7-.5 8.2 0 .9 0 1.8.1 2.8s.1 2 .2 3.1c.2 2.1.5 4.4 1 6.8.9 4.8 2.5 10.2 5.4 15.3 1.4 2.6 3.1 5 5.2 7.3 2.1 2.2 4.6 4.1 7.5 5.3 1.4.6 2.9 1.2 4.6 1.5.4.1.8.2 1.2.2.4.1.8.1 1.2.2.8.1 1.7.2 2.5.2 3.4 0 6.8-.6 10.2-1.8 1.7-.6 3.3-1.4 5-2.3 1.6-.9 3.2-1.9 4.7-3.1 3-2.3 5.6-5.2 7.9-8.4 1.1-1.6 2.2-3.3 3.1-5 .9-1.8 1.8-3.6 2.5-5.4 1.5-3.7 2.4-7.6 3.1-11.6 1.2-7.9 1-16.1-.5-23.7s-4.4-14.9-9.2-20.1c-1.2-1.3-2.4-2.5-3.8-3.5-1.3-1-2.8-1.9-4.3-2.6s-3.1-1.2-4.5-1.6l-1.3-.3-.6-.1-.6-.1c-.8-.1-1.5-.3-2.3-.3-1.6-.2-3.1-.2-4.7-.1-1.5.1-3 .3-4.5.7-2.9.6-5.6 1.8-8.1 3.2-4.9 2.8-8.7 6.7-11.5 10.7-2.8 3.9-4.6 7.8-5.9 11.1-1.2 3.3-1.9 6-2.3 7.9-.2.9-.3 1.7-.4 2.1zm-.4-.1s0-.3.1-.7c.1-.5.2-1.2.4-2.2.3-1.9 1-4.6 2-8.1.6-1.7 1.2-3.6 2-5.6s1.8-4.1 3.1-6.3c2.5-4.3 6-9 11.3-12.6 5.1-3.6 12.1-5.6 19.3-4.9.9.1 1.8.2 2.7.3l.7.1.6.1 1.3.3c1.9.5 3.6 1.1 5.4 1.9 3.5 1.6 6.7 4.2 9.3 7.2 2.6 3.1 4.7 6.6 6.2 10.4 1.6 3.8 2.7 7.8 3.3 11.9 1.3 8.2.9 16.6-.8 24.8-.9 4-2.2 8-3.8 11.7-1.6 3.8-3.6 7.3-6 10.6-4.7 6.5-10.7 12-17.7 15.2-3.5 1.6-7.2 2.5-10.9 2.7-.9 0-1.9.1-2.8 0-.5 0-.9-.1-1.4-.1-.5-.1-1-.1-1.4-.2-1.8-.3-3.6-.8-5.3-1.5-3.4-1.4-6.3-3.6-8.6-6.2-2.3-2.5-4.1-5.4-5.4-8.3-2.6-5.8-3.7-11.5-4.3-16.5-.5-5-.5-9.4-.3-13s.4-6.4.7-8.3c.1-1.7.3-2.7.3-2.7z" fill="#020000"/><path d="m192.1 204.3c2.3 8.8 16.5 23.8 17 38.4.6 15.8-9.5 30.5-10.1 43.6-.7 13.8 10.8 23.3 21.2 23.5 28.5.8 21.2-19 25.5-35 3.8-14.5 11.1-42.1 5.8-50.6-34.6-66.6-60.6-89.1-101-89.4" fill="#fdffff"/><path d="m136.6 189.6c22.6 4.8 51.3 12.1 56.4 15.4 4.7 9.7 16.2 23.8 16.2 37.8 0 21-27.6 53.3 6.7 67.6 11.5 4.8 20.1-16.4 21.7-33 1.2-12.9 9-28.4 7.1-46.1-1.2-10.9-8.5-22.6-13.8-30.6-21.3-32.3-24.5-51.9-100.2-62.1" fill="#7e9597"/><path d="m130.8 130.2c5 .5 6.5.7 12.2 1.6 2.4.4 4.8.8 7.2 1.2 2.4.5 4.8.9 7.1 1.4 9.5 1.9 19 4.4 28.2 7.8s16.3 7.2 24.2 13.4c3.9 3.1 7.4 6.6 10.6 10.5s7.2 9.6 9.6 14 22.6 30.1 25 49.6c1.9 15-9.1 46.7-9.2 51.5-.2 4.9-.2 9.9-1.3 15-.5 2.5-1.4 5.1-2.8 7.4s-3.3 4.3-5.6 5.7-4.7 2.3-7.2 2.8-5 .7-7.5.7c-.6 0-1.3 0-1.8 0h-.5c-.2 0-.3 0-.5 0l-1-.1c-1.3-.2-2.6-.4-3.8-.9-2.5-.9-4.8-2.5-6.5-4.4-3.6-3.9-5.5-8.7-7-13.5-1.4-4.8-2.8 3.6-3.5-1.3-.6-4.9 3.2-19.6 3.2-20.3 3.8-15 9.6-25.5 7.7-32-.5-3-4.8-14-7.2-18.5-5.8-10-7.1-16.5-7.1-16.5l-.6-.1.3.2.1.4c2.5 2.1 17.3 26.3 17.9 36.2.5 9.8-2.4 12-5.3 22-1.9 8-4.6 14.7-3.8 19.5.7 4.8-.8 5.2.7 9.8 1.4 4.6 3.4 9 6.6 12.3 1.6 1.6 3.4 2.9 5.5 3.6 1 .4 2.1.5 3.2.7h.8.4.5 1.8c2.3-.1 4.6-.3 6.9-.8 2.2-.5 4.3-1.3 6.2-2.5 1.8-1.2 3.3-2.8 4.4-4.7s1.8-4.1 2.2-6.3c.9-4.6.9-9.4 1-14.3 0-5 12.4-36.4 10-51.4-2.7-17.2-23-43.9-25.3-48.1s-4.9-8.2-7.9-11.8c-3-3.7-6.4-7-10-10-7.4-5.9-14.8-10.5-23.6-13.9-4.4-1.7-8.3-3.6-12.9-5-4.6-1.3-9.7-3.3-14.4-4.3-9.3-2.2-17.4-5-26.9-6.3z" fill="#020202"/><path d="m227 180.3s-.1 0-.3-.1c-.1 0-.2-.1-.3-.2s-.2-.1-.3-.1-.2-.1-.4-.1-.3-.1-.5-.1c-.4-.1-.9-.1-1.4-.1-1.1 0-2.3.3-3.7.7s-2.8 1.1-4.2 1.8c-2.8 1.5-5.5 3.3-7.5 4.7s-3.3 2.4-3.3 2.4 1.2-1.1 3-2.7 4.3-3.8 7-5.6c1.4-.9 2.8-1.8 4.2-2.4 1.4-.7 2.9-1.1 4.2-1.3.7-.1 1.3-.1 1.9-.1.3 0 .6 0 .8.1.2 0 .5.1.7.1.2.1.4.1.6.2.1 0 .2.1.3.1.2.1.3.1.3.1z" fill="#020202"/><path d="m239.8 201.6s-1.6-.6-1.9-.7c-.2 0-.4-.1-.6-.1s-.5 0-.7 0c-.5-.1-1.1 0-1.7 0-.6.1-1.2.2-1.9.3-.7.2-1.3.3-2 .6-.7.2-1.4.5-2.1.8-2.8 1.2-5.5 2.7-7.5 3.9s-3.3 2.1-3.3 2.1 1.2-1 3.1-2.5 4.5-3.4 7.2-4.9c.7-.4 1.4-.8 2.1-1.1.7-.4 1.4-.6 2.1-.9.7-.2 1.4-.5 2-.6.7-.1 4.7-.2 4.9-.1.6.2 1 .3 1 .3z" fill="#020202"/><path d="m252.5 229.1s-.3-.3-.9-.7c-.3-.3-.6-.3-.9-.5s-.8-.3-1.3-.5-1.1-.2-1.7-.4c-.6 0-1.3-.1-2-.1-.4 0-.7 0-1.1 0s-.7.1-1.1.1c-.7 0-1.5.2-2.3.3-3.1.6-6.1 1.5-8.4 2.3s-3.8 1.4-3.8 1.4 1.5-.7 3.7-1.8 5.2-2.4 8.3-3.4c.8-.2 1.6-.5 2.3-.6.4-.1.8-.2 1.2-.3s.8-.1 1.2-.2c.8-.1 1.5-.1 2.2-.2.7.1 1.4 0 2 .2.6.1 1.2.2 1.8.5.5.2 1.1.4 1.3.6.6.4.9.6.9.6z" fill="#020202"/><path d="m249.6 258.1s-.3-.3-.7-.7c-.2-.3-.5-.4-.8-.6s-.7-.4-1.1-.7-1-.4-1.5-.6c-.6-.1-1.2-.3-1.8-.4s-1.3-.2-2-.3-1.4-.1-2.1-.1c-2.9 0-5.8.3-8 .7-2.2.3-3.7.6-3.7.6s1.4-.4 3.6-1.1c2.2-.6 5.1-1.3 8-1.7.7-.1 1.5-.2 2.2-.2.7-.1 1.5 0 2.2 0s1.4.1 2.1.2c.7.2 1.3.2 1.9.5.6.2 1.1.4 1.6.7s1 .5 1.2.7c.5.4.8.6.8.6z" fill="#020202"/><path d="m197.6 293.2c-3.3-21.5 50.1-23.4 56.5-2.1 7.8 26-42.2 29.6-52.9 11.7-1.5-2.6-2.8-4.6-3.2-7.9" fill="#f0efef"/><path d="m229.2 276.1c.4.2.7.3 1.1.5s.8.4 1.2.7c.7.5 1.5 1 2.1 1.7.3.3.6.6.9 1 .3.3.6.7.8 1.1.5.7 1 1.5 1.4 2.3.8 1.6 1.4 3.2 1.9 4.9s.8 3.4 1 5.2c.1.9.2 1.7.2 2.6.1.9.1 1.7.1 2.6s0 1.7-.1 2.6-.1 1.7-.2 2.6c-.4 3.4-1.3 6.8-2.7 9.9v.1h-.1c-.2 0-.5 0-.7-.1-.1 0-.1-.1-.2-.1-.1-.1-.1-.2-.1-.2 0-.1.1-.2.2-.3.2-.2.3-.4.5-.6.1-.1.1-.2.2-.3 0-.1.1-.2 0-.4v.4c0 .1-.1.2-.1.4-.1.2-.3.4-.4.6-.1.1-.1.2-.2.3 0 .1.1.1.2.2.2.1.5 0 .7 0l-.1.1c1.2-3.1 1.9-6.5 2.1-9.9.1-.8.1-1.7.1-2.5s0-1.7-.1-2.5c0-.8-.1-1.7-.2-2.5s-.2-1.7-.4-2.5c-.3-1.6-.7-3.3-1.2-4.8-.5-1.6-1.2-3.1-2-4.4-.4-.7-.8-1.3-1.3-1.9-.2-.3-.5-.6-.7-.9-.3-.3-.5-.5-.8-.8-.5-.5-1.2-.9-1.8-1.2-.3-.2-.6-.3-.9-.4s-.7-.3-1.1-.4z" fill="#a7c4c3"/><path d="m214.8 277.9c.4.2 2.2 1.7 1.2-.4.4.2.5-.1.5-1.2.4.3.7.5 1 .8s.6.6.9.9c.6.6 1.1 1.3 1.6 2s.9 1.5 1.3 2.2c.4.8.7 1.6 1 2.3.3.8.6 1.6.8 2.4.5 1.6.8 3.3 1.1 5 .5 3.3.6 6.7.4 10s-.8 6.6-1.9 9.7v.1h-.1c-.2 0-.4 0-.7-.1-.1 0-.1-.1-.2-.1-.1-.1-.1-.2 0-.2 0-.1.1-.2.2-.3.2-.4.6-.8.5-1.3.1.2 0 .5-.1.7s-.2.4-.3.6c-.1.1-.1.2-.1.3v.1s.1.1.1.1c.2.1.4 0 .6 0l-.1.1c.9-3.1 1.3-6.4 1.3-9.7s-.4-6.5-1-9.7c-.3-1.6-.8-3.1-1.3-4.6-.3-.7-.6-1.5-.9-2.2s-.7-1.4-1.1-2.1-.8-1.3-1.3-1.9-.9-1.1-1.4-1.6c-.3-.2-.5-.5-.8-.7s-.6-.4-.8-.6c-.3-.2-.6-.3-.8-.4-.3-.1-.7-.3-1-.4z" fill="#a7c4c3"/><path d="m202.1 284 1.4-2c.3.2.6.4.9.6.5.4 1 .9 1.5 1.4.4.5.8 1.1 1.2 1.7s.7 1.2.9 1.8c.5 1.3.9 2.6 1.1 3.9.1.7.2 1.3.3 2s.1 1.3.2 2c.1 2.7-.1 5.3-.6 7.9s-1.3 5.1-2.6 7.3v.1h-.1c-.2 0-.3-.1-.5-.1 0 0-.1 0-.1-.1 0 0-.1-.1-.1-.2s.1-.2.2-.3l.4-.4c.1-.1.2-.3.2-.5 0 .2-.1.4-.2.5-.1.2-.2.3-.3.4s-.1.1-.1.2c0 0 0 .1.1.1.2.1.3.1.5.1h-.1c1.1-2.3 1.7-4.8 2-7.3s.3-5.1 0-7.6c-.2-1.2-.4-2.5-.7-3.7s-.7-2.3-1.3-3.3c-.3-.5-.6-1-.9-1.5s-.7-.9-1.1-1.2c-.4-.4-.8-.7-1.2-1-.2-.1-.4-.2-.6-.3l-.8-.4z" fill="#a7c4c3"/><path d="m242.3 278.8c.3.2.6.3.9.5s.7.4.9.7c.6.5 1.1 1 1.6 1.6.2.3.5.6.7.9s.4.6.6.9c.4.6.8 1.3 1.1 2s.6 1.4.8 2.1.5 1.4.6 2.2c.2.7.3 1.5.5 2.2.1.7.2 1.5.3 2.2.3 3 .3 6-.1 9-.2 1.5-.5 2.9-.8 4.4-.4 1.4-.9 2.8-1.5 4.1-.2 0-.4-.1-.6-.2 0 0-.1 0-.1-.1 0 0-.1-.1-.1-.2s0-.1.1-.2c0 0 .1-.1.1-.1.1-.2.3-.3.4-.5s.2-.4.2-.6v.3c0 .1-.1.2-.1.3-.1.2-.3.3-.4.5-.1.1-.1.2-.1.3v.1s.1.1.1.1c.2.1.4.1.6.1h-.1c.6-1.3 1-2.7 1.3-4.2.3-1.4.5-2.9.6-4.4.2-2.9.1-5.9-.3-8.8-.1-.7-.2-1.4-.4-2.1s-.3-1.4-.5-2.1-.4-1.4-.7-2c-.3-.7-.5-1.3-.9-1.9-.3-.6-.7-1.2-1.1-1.8-.2-.3-.4-.6-.6-.8-.2-.3-.4-.5-.7-.8-.4-.5-.9-.9-1.5-1.3-.3-.2-.5-.3-.8-.5s-.6-.3-.9-.5z" fill="#a7c4c3"/><path d="m197.4 293.3s0-.2-.1-.5c0-.1-.1-.3-.1-.6 0-.2-.1-.5-.1-.8-.1-1.2-.1-3.2.8-5.4s3.1-3.9 5.6-5.7 5.5-2.6 9-3.6c3.4-.9 7.4-1.4 11.9-1.3 4.1.1 7.7.1 11.9 1.4s8.3 2.5 12.2 5.3c1 .7 1.9 1.5 2.7 2.4.9.9 1.7 1.9 2.3 3 .7 1.1 1.3 2.3 1.7 3.6l.5 1.8c.2.6.2 1.4.4 2 .4 2.7 0 5.6-1.1 8.2s-2.9 4.7-4.9 6.3c-4 3.2-8.6 4.9-13 5.9s-8.8 1.2-12.9.8-7.9-1.3-11.3-2.6-6.4-3.1-8.6-5.3c-.5-.6-1.1-1.1-1.6-1.6-.5-.6-.9-1.1-1.3-1.7s-.7-1.2-1-1.7-.5-1.1-.8-1.6c-1-2-2.7-7.7-2.9-8.9-.6-3.5.9-.1 1.1 2.6 0-.3 0-.5 0-.5l-.4-2.3s.8 2.4.9 2.7.2.7.4 1.2c.4 1.1 1.1 2.5 2.3 4.2.3.4.6.9 1 1.4.3.4.7.9 1.1 1.3s.9.8 1.3 1.3c.5.4 1 .8 1.5 1.2 2.2 1.6 5 2.8 8.1 3.7 3.2.9 6.7 1.5 10.5 1.7s7.8 0 11.8-.7 8.1-2 11.6-4.5c1.7-1.2 3.2-2.8 4.2-4.6 1.1-1.8 1.6-4 1.6-6.3 0-.6 0-1.1-.1-1.7l-.3-1.9c-.2-1.1-.6-2.2-1.2-3.2-1.1-2.1-2.7-3.8-4.5-5.2-3.6-2.8-7.9-4.1-12.1-4.7s-8.2-.6-12-.5c-3.8.2-7.4.5-10.6 1.3-3.2.7-6.1 1.7-8.4 3-1.2.7-2.2 1.4-3 2.2-.9.8-1.5 1.6-2 2.4-1 1.7-1.4 3.3-1.5 4.4 0 .3 0 .5-.1.7 0 .2.6 3.1.6 3.2v-.3z" fill="#020202"/><path d="m125.3 187.6c-1.7-.1-3.1 1.3-3.2 2.2-.8 7.1-1.2 15.9-1.6 20.1-.1 1.2.7 2.4 2.3 3.1 12.1 4.5 34.1 4.3 38.8 2.3.6.2 3.3-.8 3.8-2.3 1-6 .1-14.2.2-20.4-.4-1.7-2.1-2.3-3.5-2.6-9.9.6-24.2-.3-36.8-2.4z" fill="#c5ccd0"/><path d="m139 198.7c-3.6-.2-7.5-.7-11.8-1.5-1.2-.2-2.1-1.6-1.8-3 .2-1.4 1.5-2.3 2.7-2.1 8.4 1.6 15.4 1.7 21.1 1.5 1.3 0 2.3 1.1 2.3 2.5s-1 2.6-2.3 2.7c-3 .1-6.4.1-10.2-.1z" fill="#fff"/><path d="m132.4 209.9c-2-.2-4.1-.6-6.4-1.4-.7-.2-1-1.5-.8-2.8s1-2.2 1.6-2c4.5 1.5 8.3 1.6 11.5 1.5.7 0 1.2 1 1.1 2.4s-.8 2.5-1.4 2.5c-1.6 0-3.5.1-5.6-.2z" fill="#fff"/><ellipse cx="158.5" cy="197.2" fill="#fff" rx="3.4" ry="3.3" transform="matrix(.2001 -.9798 .9798 .2001 -66.4547 313.075)"/><ellipse cx="155.7" cy="209.5" fill="#fff" rx="2.3" ry="2.3" transform="matrix(.2001 -.9798 .9798 .2001 -80.6827 320.095)"/><ellipse cx="150.5" cy="206.3" fill="#fff" rx="2.3" ry="2.3" transform="matrix(.2001 -.9798 .9798 .2001 -81.7271 312.5174)"/><path d="m142.3 217.5c-8.4-.5-15.8-1.8-21-3.6-2.1-.8-3.3-2.4-3.2-4.1.1-1.6.3-3.7.5-6.3.3-4.2.6-9.4 1.1-13.9.2-1.5 2.3-3.2 4.5-3.1 6.9 1.1 14.4 1.9 21.8 2.3 6.4.4 12.4.5 17.3.3h.1.1c1.1.3 3.8.9 4.4 3.3v.3c-.1 7.2-.7 14.7-1.6 20l-.1.2c-.5 1.4-1.9 3.4-3.3 3.4-3 1.3-11.7 1.7-20.6 1.2zm-18.4-29c-1.2-.1-2.3 1-2.4 1.3-.5 4.4-.8 10.4-1.1 14.6-.2 2.5.3 4.3.1 5.9-.1.7.2 1.4 1.6 1.9 5 1.7 12 2.8 20.2 3.3 15.8.9 24.5-.7 22.9-.1l1.3-1.1-1.2-.1c.3-.2.2.5.6-.5.6-7.6 0-13.6.2-20.7-.4-1-1.6-1.5-2.9-1.8-5 .2-11 .1-17.4-.3-7.4-.5-15-1.3-21.9-2.4z" fill="#020202"/><circle cx="154.2" cy="105.1" fill="#fdffff" r="67"/><ellipse cx="160.1" cy="106.9" fill="#7e9597" rx="65.5" ry="61" transform="matrix(.04547562 -.999 .999 .04547562 46.0581 262.0406)"/><path d="m104.6 150.5s-.3-.3-.8-.9-1.3-1.5-2.3-2.7c-1.9-2.4-4.6-6.1-7.3-11.2s-5.5-11.7-6.9-19.7c-1.5-8-1.8-17.4.4-27.2 1.1-4.9 2.9-9.9 5.3-14.8.6-1.2 1.3-2.4 2-3.6.8-1.2 1.4-2.4 2.3-3.5.8-1.2 1.6-2.3 2.5-3.4.9-1.2 1.8-2.2 2.8-3.3s2-2.1 3-3.2c1.1-1 2.1-2 3.3-3l1.7-1.4c.6-.5 1.2-.9 1.8-1.4 1.2-.9 2.5-1.7 3.7-2.6 2.6-1.6 5.2-3.2 8-4.4 1.4-.7 2.8-1.2 4.3-1.8l2.2-.8c.7-.3 1.5-.5 2.2-.7 12-3.7 25.3-4.2 38-1 12.7 3.1 24.7 9.9 33.9 19.7 2.2 2.4 4.4 5 6.3 7.7 1.9 2.8 3.7 5.6 5.2 8.6 3 6 5 12.4 6.1 19 2.2 13.1.3 26.6-4.7 38.3s-13.3 21.5-22.7 28.2c-4.8 3.4-9.8 6.1-14.9 8.1s-10.3 3.2-15.3 3.9c-10.1 1.3-19.4.1-27.2-2.1s-14.1-5.6-19-8.7c-4.8-3.2-8.3-6.2-10.5-8.3-1.1-1-1.9-1.9-2.5-2.5-.6-1-.9-1.3-.9-1.3zm.3-.3s.3.3.8.9c.6.6 1.3 1.4 2.5 2.5 2.2 2.1 5.6 5.1 10.6 8 2.4 1.5 5.3 2.9 8.4 4.3 3.2 1.3 6.7 2.5 10.6 3.3 7.7 1.7 16.8 2.2 26.2.6 4.7-.9 9.6-2.2 14.3-4.2 4.8-2 9.5-4.6 13.9-7.8 1.1-.8 2.1-1.7 3.2-2.5l1.6-1.4.8-.7.7-.7 1.5-1.5c.5-.5 1-1 1.5-1.5 1-1 1.9-2.1 2.8-3.2 1.8-2.2 3.5-4.6 5-7.1.8-1.2 1.5-2.5 2.2-3.8l1-2c.3-.7.7-1.3.9-2 4.9-10.9 6.8-23.6 5-36.1-.9-6.2-2.7-12.4-5.4-18.2-1.3-2.9-2.9-5.7-4.6-8.5-1.8-2.7-3.7-5.2-5.8-7.8-2.1-2.4-4.4-4.7-6.9-6.8s-5.1-4-7.9-5.7-5.6-3.2-8.6-4.4-6-2.3-9.2-3c-6.2-1.5-12.6-2.2-18.9-1.8-6.3.3-12.4 1.6-18.1 3.7-.7.2-1.4.5-2.1.8l-2.1.9c-1.4.6-2.7 1.2-4 2-2.6 1.3-5.1 2.9-7.5 4.6-1.2.9-2.4 1.7-3.4 2.6-.5.5-1.1.9-1.6 1.4l-1.6 1.5c-1 .9-2 2-3 2.9-.9 1-1.9 2-2.8 3.1-3.6 4.2-6.6 8.6-9 13.3-2.4 4.6-4.1 9.3-5.4 14-2.5 9.3-2.8 18.4-1.8 26.2.5 3.9 1.3 7.6 2.4 10.8 1 3.3 2.2 6.2 3.5 8.8 2.5 5.2 5.2 8.8 7.1 11.2.9 1.2 1.7 2.1 2.2 2.7.7.3 1 .6 1 .6z" fill="#020000"/><ellipse cx="153.7" cy="106.1" fill="#fdffff" rx="40" ry="61.5" transform="matrix(.04547562 -.999 .999 .04547562 40.676 254.8179)"/><path d="m215.1 108.9c-1 21-23.2 33.8-49.7 35.8-33.4 2.4-47.2-19.2-46.2-40.1 1-21 15.1-41.8 49.7-35.8 26.1 4.5 47.2 19.2 46.2 40.1z" fill="#c6ccd0"/><path d="m215.3 108.9s0 .3-.1.9c0 .3-.1.7-.1 1.1-.1.5-.2 1-.2 1.6-.4 2.3-1.4 5.8-3.6 9.6-1.1 1.9-2.5 4-4.3 6s-3.9 4.1-6.3 6c-4.9 3.9-11.2 7.3-18.5 9.8s-15.7 3.9-24.5 3.9c-2.2 0-4.4-.1-6.7-.2-2.2-.2-4.5-.4-6.8-.8-4.6-.7-9.2-1.7-13.7-3.2-4.6-1.5-9.1-3.3-13.4-5.6-2.2-1.1-4.3-2.4-6.4-3.8s-4-2.9-6-4.5c-1.9-1.6-3.7-3.4-5.3-5.4-1.7-1.9-3.1-4-4.4-6.3-2.5-4.5-4-9.6-3.9-15l.1-1.9c.1-.6.2-1.3.3-2 .2-1.3.5-2.6.9-3.8.8-2.5 1.9-4.9 3.3-7.1 2.8-4.5 6.6-8.2 10.7-11.2 8.3-6.1 18-9.6 27.4-11.5 4.7-1 9.5-1.5 14.1-1.6 2.3-.1 4.6-.1 6.9 0 1.2 0 2.2.1 3.4.2l3.3.3c8.8 1 17 3.2 24 6.4 7.1 3.2 13 7.2 17.5 11.5 2.3 2.2 4.2 4.4 5.8 6.6s2.8 4.4 3.7 6.4c1.9 4.1 2.5 7.6 2.7 9.9 0 .6.1 1.1.1 1.6v1.1zm-.4 0s0-.3 0-.9c0-.3 0-.7 0-1.1s-.1-1-.1-1.5c-.1-1.2-.3-2.6-.8-4.2s-1.1-3.5-2.1-5.4c-2-3.9-5.3-8.1-10-11.9s-10.7-7.1-17.6-9.7-14.8-4.5-23.2-5.3c-1.1-.1-2.1-.2-3.2-.3-1.1 0-2.2-.1-3.3-.2-2.2-.1-4.4-.1-6.6 0-4.4.1-9 .6-13.5 1.4-9 1.7-18.2 4.8-26.1 10.3-3.9 2.8-7.5 6-10.2 10s-4.5 8.5-4.9 13.4c-.3 4.7.8 9.7 3 14.1s5.5 8.2 9.2 11.4c7.4 6.4 16.6 10.4 25.6 12.7 4.1 1 7.2 1.7 13.5 2.3 2.2.2 4.4.3 6.6.4s4.3.1 6.4 0c8.5-.2 16.5-1.5 23.6-3.5s13.4-4.8 18.4-8.2c5-3.3 8.7-7.3 11-11 1.2-1.8 2-3.6 2.6-5.2s.9-3 1.1-4.2c.1-.6.2-1.1.3-1.5 0-.4.1-.8.1-1.1.2-.5.2-.8.2-.8z" fill="#020000"/><path d="m173.3 14c.9-6.8-3.9-13-10.6-13.9-6.8-.9-13 3.9-13.9 10.6-.8 5.9 2.8 11.4 8.3 13.3l-3.3 14.2 8.1.6-.2-14.2c5.8-.2 10.8-4.6 11.6-10.6z" fill="#020202"/><path d="m163.2 2.8s-.5.1-1.5.2c-.5.1-1 .2-1.7.3-.3.1-.6.2-1 .3-.3.1-.7.3-1 .4-.3.2-.7.4-1 .6-.3.3-.7.5-1 .8-.7.5-1.2 1.3-1.6 2.1s-.7 1.7-.8 2.7-.1 2 .1 2.9c.2 1 .4 1.9.9 2.8.4.9.9 1.7 1.6 2.4.6.7 1.3 1.2 2.1 1.7.8.4 1.5.7 2.3.8.4.1.7.1 1.1.1h1c.6 0 1.2-.1 1.7-.2.9-.2 1.5-.4 1.5-.4s-.1.1-.3.2-.5.3-1 .5-1 .4-1.7.6c-.3.1-.7.2-1.1.2-.4.1-.8.1-1.2 0-.9 0-1.8-.2-2.8-.6-.9-.4-1.9-1-2.7-1.8s-1.5-1.7-2-2.8c-.5-1-.9-2.2-1.1-3.3-.2-1.2-.2-2.4 0-3.5.2-1.2.6-2.3 1.2-3.3s1.4-1.8 2.2-2.4c.4-.3.9-.5 1.3-.8.4-.2.9-.3 1.3-.5.4-.1.8-.2 1.2-.3.4 0 .8-.1 1.1-.1h1.8c.5.3 1.1.4 1.1.4z" fill="#fcfcfc"/><path d="m155.5 37.2 3.6-14.3-1.6 14.6z" fill="#fcfcfc"/><path d="m216.6 224.5h1.8" fill="#fff"/></svg>