<svg xmlns="http://www.w3.org/2000/svg" width="200" height="42" viewBox="0 0 100 21"><style>.a{fill:#6B35B6;}.b{fill:#8E969E;}</style><path d="M12.6 17.1c-0.7 1.2-1.7 2.1-2.9 2.8 -1.3 0.6-2.8 0.9-4.5 0.9H0V4.6h5.1c1.7 0 3.2 0.3 4.5 1 1.3 0.7 2.2 1.6 2.9 2.8 0.7 1.2 1 2.7 1 4.4C13.6 14.4 13.2 15.9 12.6 17.1zM9.8 17.5c1.1-1.1 1.6-2.7 1.6-4.7s-0.5-3.6-1.6-4.7S7.2 6.4 5.1 6.4H2.1v12.8h3C7.2 19.2 8.7 18.6 9.8 17.5z" class="a"/><path d="M29.1 0.5C29.4 0.2 29.7 0 30.2 0c0.4 0 0.8 0.2 1.1 0.5 0.3 0.3 0.4 0.7 0.4 1.1 0 0.4-0.1 0.8-0.4 1.1s-0.7 0.5-1.1 0.5c-0.4 0-0.8-0.2-1.1-0.5 -0.3-0.3-0.5-0.7-0.5-1.1C28.6 1.1 28.8 0.8 29.1 0.5z" class="a"/><path d="M14.7 0.5C15 0.2 15.4 0 15.8 0c0.4 0 0.8 0.2 1.1 0.5 0.3 0.3 0.4 0.7 0.4 1.1 0 0.4-0.1 0.8-0.4 1.1 -0.3 0.3-0.7 0.5-1.1 0.5 -0.4 0-0.8-0.2-1.1-0.5 -0.3-0.3-0.5-0.7-0.5-1.1C14.3 1.1 14.4 0.8 14.7 0.5z" class="a"/><path d="M31.3 4.6v16.2h-2.2V9l-5.4 11.8h-1.4L16.8 9v11.8h-2.1V4.6h2.2l6.1 13.3 6.1-13.3H31.3z" class="a"/><path d="M42.4 8.6c1 0.5 1.8 1.3 2.3 2.3 0.6 1 0.9 2.2 0.9 3.5 0 1.3-0.3 2.4-0.9 3.4 -0.6 1-1.4 1.8-2.4 2.3C41.3 20.7 40.2 21 38.9 21c-1.2 0-2.3-0.3-3.2-0.8s-1.7-1.3-2.2-2.3c-0.5-1-0.8-2.2-0.8-3.5 0-1.3 0.3-2.5 0.9-3.5s1.3-1.8 2.3-2.3c1-0.5 2.1-0.8 3.3-0.8S41.4 8 42.4 8.6zM36.9 10.1c-0.6 0.4-1.1 0.9-1.5 1.7 -0.4 0.7-0.6 1.6-0.6 2.7 0 1 0.2 1.9 0.6 2.6 0.4 0.7 0.9 1.3 1.5 1.7 0.6 0.4 1.3 0.6 2.1 0.6 0.8 0 1.5-0.2 2.2-0.6 0.7-0.4 1.2-0.9 1.6-1.7 0.4-0.7 0.6-1.6 0.6-2.6 0-1-0.2-1.9-0.6-2.7 -0.4-0.7-0.9-1.3-1.6-1.7C40.6 9.7 39.8 9.5 39.1 9.5 38.3 9.5 37.6 9.7 36.9 10.1z" class="b"/><path d="M55.2 8.5c0.8 0.5 1.4 1.2 1.9 2V3.5h2.2v17.3h-2.2v-2.6c-0.4 0.8-1 1.5-1.9 2S53.5 21 52.4 21c-1.2 0-2.2-0.3-3.1-0.9s-1.7-1.4-2.2-2.4c-0.5-1-0.8-2.2-0.8-3.5 0-1.3 0.3-2.4 0.8-3.4s1.3-1.8 2.2-2.3c0.9-0.5 2-0.8 3.1-0.8C53.5 7.7 54.4 8 55.2 8.5zM50.6 10.2c-0.7 0.4-1.2 0.9-1.6 1.6 -0.4 0.7-0.6 1.5-0.6 2.5s0.2 1.8 0.6 2.6c0.4 0.7 0.9 1.3 1.6 1.7 0.7 0.4 1.4 0.6 2.1 0.6 0.8 0 1.5-0.2 2.2-0.6 0.7-0.4 1.2-0.9 1.6-1.7 0.4-0.7 0.6-1.6 0.6-2.5s-0.2-1.8-0.6-2.5c-0.4-0.7-0.9-1.3-1.6-1.7 -0.7-0.4-1.4-0.6-2.2-0.6C52 9.6 51.3 9.8 50.6 10.2z" class="b"/><path d="M72.1 8v12.8h-2.1v-2.1c-0.4 0.7-1 1.3-1.7 1.7C67.5 20.8 66.7 21 65.8 21c-0.9 0-1.8-0.2-2.5-0.6 -0.8-0.4-1.4-1-1.8-1.8s-0.7-1.8-0.7-3V8h2.1v7.3c0 1.3 0.3 2.3 0.9 2.9 0.6 0.7 1.5 1 2.6 1 1.1 0 2-0.3 2.6-1 0.6-0.7 0.9-1.7 0.9-2.9V8H72.1z" class="b"/><path d="M75.9 3.5v17.3h-2.1V3.5H75.9z" class="b"/><path d="M89.5 15.1H79.2c0.1 1.3 0.5 2.3 1.2 3 0.7 0.7 1.7 1.1 2.8 1.1 0.9 0 1.6-0.2 2.2-0.6s1-0.9 1.3-1.5h2.3c-0.4 1.1-1.1 2.1-2.1 2.8 -1 0.7-2.2 1.1-3.7 1.1 -1.2 0-2.3-0.3-3.2-0.8 -0.9-0.5-1.7-1.3-2.2-2.3 -0.5-1-0.8-2.2-0.8-3.5 0-1.3 0.3-2.5 0.8-3.5s1.3-1.8 2.2-2.3c1-0.5 2.1-0.8 3.3-0.8 1.2 0 2.3 0.3 3.2 0.8 0.9 0.5 1.6 1.3 2.2 2.2 0.5 0.9 0.8 2 0.8 3.1C89.6 14.3 89.5 14.7 89.5 15.1zM87.3 13.6c0-0.8-0.2-1.5-0.5-2.2 -0.4-0.6-0.8-1.1-1.5-1.4 -0.6-0.3-1.3-0.5-2-0.5 -1.1 0-2 0.4-2.8 1.1 -0.7 0.7-1.2 1.7-1.2 3H87.3z" class="b"/><path d="M98.5 8.8c0.8 0.7 1.3 1.7 1.3 3h-2.2c0-0.7-0.3-1.3-0.7-1.7 -0.5-0.4-1.1-0.7-1.9-0.7 -0.8 0-1.4 0.2-1.9 0.6 -0.5 0.4-0.7 0.9-0.7 1.4 0 0.5 0.1 0.9 0.4 1.2 0.3 0.3 0.6 0.5 1.1 0.6 0.4 0.1 1 0.3 1.7 0.4 0.9 0.2 1.7 0.4 2.3 0.6 0.6 0.2 1.1 0.6 1.5 1.1S100 16.5 100 17.4c0 0.7-0.2 1.3-0.6 1.9s-1 1-1.7 1.3C97 20.8 96.1 21 95.2 21c-1.4 0-2.6-0.4-3.4-1.1 -0.9-0.7-1.3-1.7-1.4-3h2.2c0 0.7 0.3 1.3 0.8 1.7s1.1 0.6 1.9 0.6c0.9 0 1.5-0.2 2-0.5 0.5-0.4 0.7-0.8 0.7-1.4 0-0.5-0.1-0.9-0.4-1.2 -0.3-0.3-0.6-0.5-1.1-0.7 -0.4-0.1-1-0.3-1.8-0.5 -0.9-0.2-1.7-0.4-2.2-0.6 -0.6-0.2-1.1-0.5-1.4-1 -0.4-0.5-0.6-1.1-0.6-1.9 0-0.7 0.2-1.3 0.6-1.9 0.4-0.6 1-1 1.7-1.4 0.7-0.3 1.6-0.5 2.6-0.5C96.6 7.7 97.7 8.1 98.5 8.8z" class="b"/></svg>
